{
	"patcher" : 	{
		"fileversion" : 1,
		"rect" : [ 413.0, 56.0, 907.0, 515.0 ],
		"bglocked" : 0,
		"defrect" : [ 413.0, 56.0, 907.0, 515.0 ],
		"openrect" : [ 0.0, 0.0, 0.0, 0.0 ],
		"openinpresentation" : 0,
		"default_fontsize" : 12.0,
		"default_fontface" : 0,
		"default_fontname" : "Arial",
		"gridonopen" : 0,
		"gridsize" : [ 15.0, 15.0 ],
		"gridsnaponopen" : 0,
		"toolbarvisible" : 1,
		"boxanimatetime" : 200,
		"imprint" : 0,
		"enablehscroll" : 1,
		"enablevscroll" : 1,
		"devicewidth" : 0.0,
		"boxes" : [ 			{
				"box" : 				{
					"maxclass" : "newobj",
					"text" : "delay 100",
					"id" : "obj-5",
					"fontname" : "Arial",
					"numinlets" : 2,
					"numoutlets" : 1,
					"fontsize" : 12.0,
					"outlettype" : [ "bang" ],
					"patching_rect" : [ 150.0, 420.0, 63.0, 20.0 ]
				}

			}
, 			{
				"box" : 				{
					"maxclass" : "message",
					"text" : "size 100",
					"id" : "obj-4",
					"fontname" : "Arial",
					"numinlets" : 2,
					"numoutlets" : 1,
					"fontsize" : 12.0,
					"outlettype" : [ "" ],
					"patching_rect" : [ 94.0, 66.0, 55.0, 18.0 ]
				}

			}
, 			{
				"box" : 				{
					"maxclass" : "message",
					"text" : "size 30100",
					"id" : "obj-3",
					"fontname" : "Arial",
					"numinlets" : 2,
					"numoutlets" : 1,
					"fontsize" : 12.0,
					"outlettype" : [ "" ],
					"patching_rect" : [ 103.0, 25.0, 69.0, 18.0 ]
				}

			}
, 			{
				"box" : 				{
					"maxclass" : "message",
					"text" : "1",
					"id" : "obj-95",
					"fontname" : "Arial",
					"numinlets" : 2,
					"numoutlets" : 1,
					"fontsize" : 12.0,
					"outlettype" : [ "" ],
					"patching_rect" : [ 150.0, 454.0, 32.5, 18.0 ]
				}

			}
, 			{
				"box" : 				{
					"maxclass" : "newobj",
					"text" : "loadbang",
					"id" : "obj-93",
					"fontname" : "Arial",
					"numinlets" : 1,
					"numoutlets" : 1,
					"fontsize" : 12.0,
					"outlettype" : [ "bang" ],
					"patching_rect" : [ 150.0, 389.0, 60.0, 20.0 ]
				}

			}
, 			{
				"box" : 				{
					"maxclass" : "preset",
					"id" : "obj-92",
					"numinlets" : 1,
					"numoutlets" : 4,
					"outlettype" : [ "preset", "int", "preset", "int" ],
					"patching_rect" : [ 150.0, 477.0, 71.0, 18.0 ],
					"preset_data" : [ 						{
							"number" : 1,
							"data" : [ 5, "<invalid>", "toggle", "int", 0, 5, "obj-7", "toggle", "int", 1, 5, "obj-13", "toggle", "int", 1, 5, "obj-15", "flonum", "float", 0.0, 5, "obj-16", "flonum", "float", 30100.0, 5, "obj-19", "flonum", "float", 0.7, 5, "obj-36", "flonum", "float", 4000.0, 5, "obj-37", "flonum", "float", 0.0, 5, "obj-38", "flonum", "float", 0.0, 5, "obj-39", "flonum", "float", 4000.0, 5, "obj-43", "flonum", "float", 22100.0, 5, "obj-53", "flonum", "float", 1000.0, 5, "obj-55", "flonum", "float", 1.0, 5, "obj-60", "flonum", "float", 1.0, 5, "obj-61", "flonum", "float", 0.5, 5, "obj-65", "flonum", "float", 0.897248, 5, "obj-82", "number", "int", 5, 5, "obj-12", "number", "int", 5, 5, "obj-85", "number", "int", 20, 5, "obj-87", "flonum", "float", 0.8 ]
						}
 ]
				}

			}
, 			{
				"box" : 				{
					"maxclass" : "outlet",
					"id" : "obj-91",
					"numinlets" : 1,
					"numoutlets" : 0,
					"patching_rect" : [ 50.0, 420.0, 25.0, 25.0 ],
					"comment" : ""
				}

			}
, 			{
				"box" : 				{
					"maxclass" : "inlet",
					"id" : "obj-90",
					"numinlets" : 0,
					"numoutlets" : 1,
					"outlettype" : [ "" ],
					"patching_rect" : [ 120.0, 117.0, 25.0, 25.0 ],
					"comment" : ""
				}

			}
, 			{
				"box" : 				{
					"maxclass" : "message",
					"text" : "reset",
					"id" : "obj-88",
					"fontname" : "Arial",
					"numinlets" : 2,
					"numoutlets" : 1,
					"fontsize" : 12.0,
					"outlettype" : [ "" ],
					"patching_rect" : [ 27.0, 144.0, 37.0, 18.0 ]
				}

			}
, 			{
				"box" : 				{
					"maxclass" : "newobj",
					"text" : "*~",
					"id" : "obj-86",
					"fontname" : "Arial",
					"numinlets" : 2,
					"numoutlets" : 1,
					"fontsize" : 12.0,
					"outlettype" : [ "signal" ],
					"patching_rect" : [ 815.0, 249.0, 32.5, 20.0 ]
				}

			}
, 			{
				"box" : 				{
					"maxclass" : "flonum",
					"id" : "obj-87",
					"fontname" : "Arial",
					"numinlets" : 1,
					"numoutlets" : 2,
					"fontsize" : 12.0,
					"outlettype" : [ "float", "bang" ],
					"patching_rect" : [ 829.0, 216.0, 50.0, 20.0 ]
				}

			}
, 			{
				"box" : 				{
					"maxclass" : "number",
					"id" : "obj-85",
					"fontname" : "Arial",
					"numinlets" : 1,
					"numoutlets" : 2,
					"fontsize" : 11.595187,
					"outlettype" : [ "int", "bang" ],
					"patching_rect" : [ 812.0, 319.0, 50.0, 20.0 ]
				}

			}
, 			{
				"box" : 				{
					"maxclass" : "newobj",
					"text" : "tapout~ 1000",
					"id" : "obj-84",
					"fontname" : "Arial",
					"numinlets" : 1,
					"numoutlets" : 1,
					"fontsize" : 12.0,
					"outlettype" : [ "signal" ],
					"patching_rect" : [ 769.0, 358.0, 81.0, 20.0 ]
				}

			}
, 			{
				"box" : 				{
					"maxclass" : "newobj",
					"text" : "tapin~ 1000",
					"id" : "obj-83",
					"fontname" : "Arial",
					"numinlets" : 1,
					"numoutlets" : 1,
					"fontsize" : 12.0,
					"outlettype" : [ "tapconnect" ],
					"patching_rect" : [ 768.0, 284.0, 74.0, 20.0 ]
				}

			}
, 			{
				"box" : 				{
					"maxclass" : "number",
					"id" : "obj-12",
					"fontname" : "Arial",
					"numinlets" : 1,
					"numoutlets" : 2,
					"fontsize" : 11.595187,
					"outlettype" : [ "int", "bang" ],
					"patching_rect" : [ 719.0, 376.0, 50.0, 20.0 ]
				}

			}
, 			{
				"box" : 				{
					"maxclass" : "number",
					"id" : "obj-82",
					"fontname" : "Arial",
					"numinlets" : 1,
					"numoutlets" : 2,
					"fontsize" : 11.595187,
					"outlettype" : [ "int", "bang" ],
					"patching_rect" : [ 657.0, 376.0, 50.0, 20.0 ]
				}

			}
, 			{
				"box" : 				{
					"maxclass" : "newobj",
					"text" : "rampsmooth~",
					"id" : "obj-79",
					"fontname" : "Arial",
					"numinlets" : 3,
					"numoutlets" : 1,
					"fontsize" : 12.0,
					"outlettype" : [ "signal" ],
					"patching_rect" : [ 630.0, 414.0, 84.0, 20.0 ]
				}

			}
, 			{
				"box" : 				{
					"maxclass" : "message",
					"text" : "0",
					"id" : "obj-77",
					"fontname" : "Arial",
					"numinlets" : 2,
					"numoutlets" : 1,
					"fontsize" : 12.0,
					"outlettype" : [ "" ],
					"patching_rect" : [ 549.0, 51.0, 32.5, 18.0 ]
				}

			}
, 			{
				"box" : 				{
					"maxclass" : "button",
					"id" : "obj-76",
					"numinlets" : 1,
					"numoutlets" : 1,
					"outlettype" : [ "bang" ],
					"patching_rect" : [ 548.0, 2.0, 35.0, 35.0 ]
				}

			}
, 			{
				"box" : 				{
					"maxclass" : "message",
					"text" : "1.2",
					"id" : "obj-75",
					"fontname" : "Arial",
					"numinlets" : 2,
					"numoutlets" : 1,
					"fontsize" : 12.0,
					"outlettype" : [ "" ],
					"patching_rect" : [ 504.0, 62.0, 32.5, 18.0 ]
				}

			}
, 			{
				"box" : 				{
					"maxclass" : "newobj",
					"text" : "if $f1 >= 0.95 then bang",
					"id" : "obj-71",
					"fontname" : "Arial",
					"numinlets" : 1,
					"numoutlets" : 1,
					"fontsize" : 12.0,
					"outlettype" : [ "" ],
					"patching_rect" : [ 673.0, 238.0, 137.0, 20.0 ]
				}

			}
, 			{
				"box" : 				{
					"maxclass" : "newobj",
					"text" : "snapshot~ 100",
					"id" : "obj-66",
					"fontname" : "Arial",
					"numinlets" : 2,
					"numoutlets" : 1,
					"fontsize" : 11.595187,
					"outlettype" : [ "float" ],
					"patching_rect" : [ 672.0, 186.0, 85.0, 20.0 ]
				}

			}
, 			{
				"box" : 				{
					"maxclass" : "flonum",
					"id" : "obj-65",
					"fontname" : "Arial",
					"numinlets" : 1,
					"numoutlets" : 2,
					"fontsize" : 12.0,
					"outlettype" : [ "float", "bang" ],
					"patching_rect" : [ 673.0, 213.0, 50.0, 20.0 ]
				}

			}
, 			{
				"box" : 				{
					"maxclass" : "meter~",
					"id" : "obj-62",
					"numinlets" : 1,
					"numoutlets" : 1,
					"outlettype" : [ "float" ],
					"patching_rect" : [ 15.0, 378.0, 91.0, 14.0 ]
				}

			}
, 			{
				"box" : 				{
					"maxclass" : "flonum",
					"id" : "obj-61",
					"fontname" : "Arial",
					"numinlets" : 1,
					"numoutlets" : 2,
					"fontsize" : 12.0,
					"outlettype" : [ "float", "bang" ],
					"patching_rect" : [ 84.0, 311.0, 50.0, 20.0 ]
				}

			}
, 			{
				"box" : 				{
					"maxclass" : "flonum",
					"id" : "obj-60",
					"fontname" : "Arial",
					"numinlets" : 1,
					"numoutlets" : 2,
					"fontsize" : 12.0,
					"outlettype" : [ "float", "bang" ],
					"patching_rect" : [ 29.0, 311.0, 50.0, 20.0 ]
				}

			}
, 			{
				"box" : 				{
					"maxclass" : "newobj",
					"text" : "*~",
					"id" : "obj-59",
					"fontname" : "Arial",
					"numinlets" : 2,
					"numoutlets" : 1,
					"fontsize" : 12.0,
					"outlettype" : [ "signal" ],
					"patching_rect" : [ 70.0, 341.0, 32.5, 20.0 ]
				}

			}
, 			{
				"box" : 				{
					"maxclass" : "newobj",
					"text" : "*~",
					"id" : "obj-58",
					"fontname" : "Arial",
					"numinlets" : 2,
					"numoutlets" : 1,
					"fontsize" : 12.0,
					"outlettype" : [ "signal" ],
					"patching_rect" : [ 15.0, 341.0, 32.5, 20.0 ]
				}

			}
, 			{
				"box" : 				{
					"maxclass" : "flonum",
					"id" : "obj-55",
					"fontname" : "Arial",
					"numinlets" : 1,
					"numoutlets" : 2,
					"fontsize" : 12.0,
					"outlettype" : [ "float", "bang" ],
					"patching_rect" : [ 355.0, 85.0, 50.0, 20.0 ]
				}

			}
, 			{
				"box" : 				{
					"maxclass" : "message",
					"text" : "0., 1. 100",
					"id" : "obj-46",
					"fontname" : "Arial",
					"numinlets" : 2,
					"numoutlets" : 1,
					"fontsize" : 12.0,
					"outlettype" : [ "" ],
					"patching_rect" : [ 396.0, 24.0, 61.0, 18.0 ]
				}

			}
, 			{
				"box" : 				{
					"maxclass" : "newobj",
					"text" : "line 1. 20.",
					"id" : "obj-54",
					"fontname" : "Arial",
					"numinlets" : 3,
					"numoutlets" : 2,
					"fontsize" : 12.0,
					"outlettype" : [ "", "" ],
					"patching_rect" : [ 396.0, 50.0, 63.0, 20.0 ]
				}

			}
, 			{
				"box" : 				{
					"maxclass" : "newobj",
					"text" : "delay 100",
					"id" : "obj-45",
					"fontname" : "Arial",
					"numinlets" : 2,
					"numoutlets" : 1,
					"fontsize" : 12.0,
					"outlettype" : [ "bang" ],
					"patching_rect" : [ 638.0, 88.0, 63.0, 20.0 ]
				}

			}
, 			{
				"box" : 				{
					"maxclass" : "newobj",
					"text" : "*~",
					"id" : "obj-33",
					"fontname" : "Arial",
					"numinlets" : 2,
					"numoutlets" : 1,
					"fontsize" : 12.0,
					"outlettype" : [ "signal" ],
					"patching_rect" : [ 330.0, 129.0, 32.5, 20.0 ]
				}

			}
, 			{
				"box" : 				{
					"maxclass" : "message",
					"text" : "1., 0. 100",
					"id" : "obj-29",
					"fontname" : "Arial",
					"numinlets" : 2,
					"numoutlets" : 1,
					"fontsize" : 12.0,
					"outlettype" : [ "" ],
					"patching_rect" : [ 314.0, 24.0, 61.0, 18.0 ]
				}

			}
, 			{
				"box" : 				{
					"maxclass" : "newobj",
					"text" : "line 1. 20.",
					"id" : "obj-28",
					"fontname" : "Arial",
					"numinlets" : 3,
					"numoutlets" : 2,
					"fontsize" : 12.0,
					"outlettype" : [ "", "" ],
					"patching_rect" : [ 314.0, 50.0, 63.0, 20.0 ]
				}

			}
, 			{
				"box" : 				{
					"maxclass" : "message",
					"text" : "startloop",
					"id" : "obj-56",
					"fontname" : "Arial",
					"numinlets" : 2,
					"numoutlets" : 1,
					"fontsize" : 11.595187,
					"outlettype" : [ "" ],
					"patching_rect" : [ 638.0, 119.0, 53.0, 18.0 ]
				}

			}
, 			{
				"box" : 				{
					"maxclass" : "flonum",
					"id" : "obj-53",
					"fontname" : "Arial",
					"numinlets" : 1,
					"numoutlets" : 2,
					"fontsize" : 12.0,
					"outlettype" : [ "float", "bang" ],
					"patching_rect" : [ 423.0, 170.0, 50.0, 20.0 ]
				}

			}
, 			{
				"box" : 				{
					"maxclass" : "newobj",
					"text" : "freqshift~",
					"id" : "obj-52",
					"fontname" : "Arial",
					"numinlets" : 2,
					"numoutlets" : 2,
					"fontsize" : 12.0,
					"outlettype" : [ "signal", "signal" ],
					"patching_rect" : [ 379.0, 196.0, 60.0, 20.0 ]
				}

			}
, 			{
				"box" : 				{
					"maxclass" : "message",
					"text" : "0",
					"id" : "obj-49",
					"fontname" : "Arial",
					"numinlets" : 2,
					"numoutlets" : 1,
					"fontsize" : 12.0,
					"outlettype" : [ "" ],
					"patching_rect" : [ 83.0, 197.0, 32.5, 18.0 ]
				}

			}
, 			{
				"box" : 				{
					"maxclass" : "newobj",
					"text" : "delay 30100",
					"id" : "obj-48",
					"fontname" : "Arial",
					"numinlets" : 2,
					"numoutlets" : 1,
					"fontsize" : 12.0,
					"outlettype" : [ "bang" ],
					"patching_rect" : [ 360.0, 366.0, 76.0, 20.0 ]
				}

			}
, 			{
				"box" : 				{
					"maxclass" : "button",
					"id" : "obj-47",
					"numinlets" : 1,
					"numoutlets" : 1,
					"outlettype" : [ "bang" ],
					"patching_rect" : [ 371.0, 341.0, 20.0, 20.0 ]
				}

			}
, 			{
				"box" : 				{
					"maxclass" : "flonum",
					"id" : "obj-43",
					"fontname" : "Arial",
					"numinlets" : 1,
					"numoutlets" : 2,
					"fontsize" : 11.595187,
					"outlettype" : [ "float", "bang" ],
					"patching_rect" : [ 598.0, 255.872345, 50.0, 20.0 ]
				}

			}
, 			{
				"box" : 				{
					"maxclass" : "message",
					"text" : "maxsustain $1",
					"id" : "obj-44",
					"fontname" : "Arial",
					"numinlets" : 2,
					"numoutlets" : 1,
					"fontsize" : 11.595187,
					"outlettype" : [ "" ],
					"patching_rect" : [ 598.0, 279.463837, 85.0, 18.0 ]
				}

			}
, 			{
				"box" : 				{
					"maxclass" : "message",
					"text" : "1",
					"id" : "obj-42",
					"fontname" : "Arial",
					"numinlets" : 2,
					"numoutlets" : 1,
					"fontsize" : 12.0,
					"outlettype" : [ "" ],
					"patching_rect" : [ 341.0, 313.0, 32.5, 18.0 ]
				}

			}
, 			{
				"box" : 				{
					"maxclass" : "newobj",
					"text" : "*~",
					"id" : "obj-40",
					"fontname" : "Arial",
					"numinlets" : 2,
					"numoutlets" : 1,
					"fontsize" : 12.0,
					"outlettype" : [ "signal" ],
					"patching_rect" : [ 438.0, 417.0, 32.5, 20.0 ]
				}

			}
, 			{
				"box" : 				{
					"maxclass" : "flonum",
					"id" : "obj-39",
					"fontname" : "Arial",
					"numinlets" : 1,
					"numoutlets" : 2,
					"fontsize" : 12.0,
					"outlettype" : [ "float", "bang" ],
					"patching_rect" : [ 617.0, 309.0, 50.0, 20.0 ]
				}

			}
, 			{
				"box" : 				{
					"maxclass" : "flonum",
					"id" : "obj-38",
					"fontname" : "Arial",
					"numinlets" : 1,
					"numoutlets" : 2,
					"fontsize" : 12.0,
					"outlettype" : [ "float", "bang" ],
					"patching_rect" : [ 562.0, 310.0, 50.0, 20.0 ]
				}

			}
, 			{
				"box" : 				{
					"maxclass" : "flonum",
					"id" : "obj-37",
					"fontname" : "Arial",
					"numinlets" : 1,
					"numoutlets" : 2,
					"fontsize" : 12.0,
					"outlettype" : [ "float", "bang" ],
					"patching_rect" : [ 509.0, 310.0, 50.0, 20.0 ]
				}

			}
, 			{
				"box" : 				{
					"maxclass" : "flonum",
					"id" : "obj-36",
					"fontname" : "Arial",
					"numinlets" : 1,
					"numoutlets" : 2,
					"fontsize" : 12.0,
					"outlettype" : [ "float", "bang" ],
					"patching_rect" : [ 453.0, 310.0, 50.0, 20.0 ]
				}

			}
, 			{
				"box" : 				{
					"maxclass" : "newobj",
					"text" : "adsr~",
					"id" : "obj-35",
					"fontname" : "Arial",
					"numinlets" : 5,
					"numoutlets" : 4,
					"fontsize" : 12.0,
					"outlettype" : [ "signal", "signal", "", "" ],
					"patching_rect" : [ 456.0, 365.0, 158.0, 20.0 ]
				}

			}
, 			{
				"box" : 				{
					"maxclass" : "message",
					"text" : "clear",
					"id" : "obj-34",
					"fontname" : "Arial",
					"numinlets" : 2,
					"numoutlets" : 1,
					"fontsize" : 12.0,
					"outlettype" : [ "" ],
					"patching_rect" : [ 178.0, 25.0, 37.0, 18.0 ]
				}

			}
, 			{
				"box" : 				{
					"maxclass" : "newobj",
					"text" : "*~",
					"id" : "obj-20",
					"fontname" : "Arial",
					"numinlets" : 2,
					"numoutlets" : 1,
					"fontsize" : 12.0,
					"outlettype" : [ "signal" ],
					"patching_rect" : [ 416.0, 145.0, 32.5, 20.0 ]
				}

			}
, 			{
				"box" : 				{
					"maxclass" : "flonum",
					"id" : "obj-19",
					"fontname" : "Arial",
					"numinlets" : 1,
					"numoutlets" : 2,
					"fontsize" : 12.0,
					"outlettype" : [ "float", "bang" ],
					"patching_rect" : [ 416.0, 106.0, 50.0, 20.0 ]
				}

			}
, 			{
				"box" : 				{
					"maxclass" : "newobj",
					"text" : "sig~",
					"id" : "obj-18",
					"fontname" : "Arial",
					"numinlets" : 1,
					"numoutlets" : 1,
					"fontsize" : 12.0,
					"outlettype" : [ "signal" ],
					"patching_rect" : [ 511.0, 91.0, 33.0, 20.0 ]
				}

			}
, 			{
				"box" : 				{
					"maxclass" : "meter~",
					"id" : "obj-17",
					"numinlets" : 1,
					"numoutlets" : 1,
					"outlettype" : [ "float" ],
					"patching_rect" : [ 172.0, 190.0, 140.0, 33.0 ]
				}

			}
, 			{
				"box" : 				{
					"maxclass" : "flonum",
					"id" : "obj-16",
					"fontname" : "Arial",
					"numinlets" : 1,
					"numoutlets" : 2,
					"fontsize" : 12.0,
					"outlettype" : [ "float", "bang" ],
					"patching_rect" : [ 224.0, 239.0, 64.0, 20.0 ]
				}

			}
, 			{
				"box" : 				{
					"maxclass" : "flonum",
					"id" : "obj-15",
					"fontname" : "Arial",
					"numinlets" : 1,
					"numoutlets" : 2,
					"fontsize" : 12.0,
					"outlettype" : [ "float", "bang" ],
					"patching_rect" : [ 134.0, 241.0, 50.0, 20.0 ]
				}

			}
, 			{
				"box" : 				{
					"maxclass" : "toggle",
					"id" : "obj-13",
					"numinlets" : 1,
					"numoutlets" : 1,
					"outlettype" : [ "int" ],
					"patching_rect" : [ 579.0, 76.0, 20.0, 20.0 ]
				}

			}
, 			{
				"box" : 				{
					"maxclass" : "message",
					"text" : "loop $1",
					"id" : "obj-14",
					"fontname" : "Arial",
					"numinlets" : 2,
					"numoutlets" : 1,
					"fontsize" : 12.0,
					"outlettype" : [ "" ],
					"patching_rect" : [ 578.0, 119.0, 50.0, 18.0 ]
				}

			}
, 			{
				"box" : 				{
					"maxclass" : "newobj",
					"text" : "groove~ didgesample",
					"id" : "obj-11",
					"fontname" : "Arial",
					"numinlets" : 3,
					"numoutlets" : 2,
					"fontsize" : 12.0,
					"outlettype" : [ "signal", "signal" ],
					"patching_rect" : [ 510.0, 183.0, 126.0, 20.0 ]
				}

			}
, 			{
				"box" : 				{
					"maxclass" : "toggle",
					"id" : "obj-7",
					"numinlets" : 1,
					"numoutlets" : 1,
					"outlettype" : [ "int" ],
					"patching_rect" : [ 95.0, 238.0, 20.0, 20.0 ]
				}

			}
, 			{
				"box" : 				{
					"maxclass" : "newobj",
					"text" : "buffer~ didgesample 30100",
					"id" : "obj-2",
					"fontname" : "Arial",
					"numinlets" : 1,
					"numoutlets" : 2,
					"fontsize" : 12.0,
					"outlettype" : [ "float", "bang" ],
					"patching_rect" : [ 166.0, 83.0, 156.0, 20.0 ]
				}

			}
, 			{
				"box" : 				{
					"maxclass" : "newobj",
					"text" : "record~ didgesample",
					"id" : "obj-1",
					"fontname" : "Arial",
					"numinlets" : 3,
					"numoutlets" : 1,
					"fontsize" : 12.0,
					"outlettype" : [ "signal" ],
					"patching_rect" : [ 95.0, 279.0, 123.0, 20.0 ]
				}

			}
 ],
		"lines" : [ 			{
				"patchline" : 				{
					"source" : [ "obj-11", 0 ],
					"destination" : [ "obj-86", 0 ],
					"hidden" : 0,
					"midpoints" : [ 519.5, 213.0, 657.0, 213.0, 657.0, 171.0, 816.0, 171.0, 816.0, 243.0, 824.5, 243.0 ]
				}

			}
, 			{
				"patchline" : 				{
					"source" : [ "obj-11", 0 ],
					"destination" : [ "obj-79", 0 ],
					"hidden" : 0,
					"midpoints" : [  ]
				}

			}
, 			{
				"patchline" : 				{
					"source" : [ "obj-11", 1 ],
					"destination" : [ "obj-66", 0 ],
					"hidden" : 0,
					"midpoints" : [  ]
				}

			}
, 			{
				"patchline" : 				{
					"source" : [ "obj-11", 0 ],
					"destination" : [ "obj-33", 0 ],
					"hidden" : 0,
					"midpoints" : [ 519.5, 204.0, 483.0, 204.0, 483.0, 138.0, 372.0, 138.0, 372.0, 126.0, 339.5, 126.0 ]
				}

			}
, 			{
				"patchline" : 				{
					"source" : [ "obj-14", 0 ],
					"destination" : [ "obj-11", 0 ],
					"hidden" : 0,
					"midpoints" : [  ]
				}

			}
, 			{
				"patchline" : 				{
					"source" : [ "obj-18", 0 ],
					"destination" : [ "obj-11", 0 ],
					"hidden" : 0,
					"midpoints" : [  ]
				}

			}
, 			{
				"patchline" : 				{
					"source" : [ "obj-56", 0 ],
					"destination" : [ "obj-11", 0 ],
					"hidden" : 0,
					"midpoints" : [ 647.5, 168.0, 519.5, 168.0 ]
				}

			}
, 			{
				"patchline" : 				{
					"source" : [ "obj-88", 0 ],
					"destination" : [ "obj-1", 0 ],
					"hidden" : 0,
					"midpoints" : [ 36.5, 183.0, 69.0, 183.0, 69.0, 225.0, 81.0, 225.0, 81.0, 276.0, 104.5, 276.0 ]
				}

			}
, 			{
				"patchline" : 				{
					"source" : [ "obj-7", 0 ],
					"destination" : [ "obj-1", 0 ],
					"hidden" : 0,
					"midpoints" : [  ]
				}

			}
, 			{
				"patchline" : 				{
					"source" : [ "obj-15", 0 ],
					"destination" : [ "obj-1", 1 ],
					"hidden" : 0,
					"midpoints" : [  ]
				}

			}
, 			{
				"patchline" : 				{
					"source" : [ "obj-16", 0 ],
					"destination" : [ "obj-1", 2 ],
					"hidden" : 0,
					"midpoints" : [  ]
				}

			}
, 			{
				"patchline" : 				{
					"source" : [ "obj-40", 0 ],
					"destination" : [ "obj-1", 0 ],
					"hidden" : 0,
					"midpoints" : [ 447.5, 438.0, 285.0, 438.0, 285.0, 309.0, 81.0, 309.0, 81.0, 276.0, 104.5, 276.0 ]
				}

			}
, 			{
				"patchline" : 				{
					"source" : [ "obj-4", 0 ],
					"destination" : [ "obj-2", 0 ],
					"hidden" : 0,
					"midpoints" : [  ]
				}

			}
, 			{
				"patchline" : 				{
					"source" : [ "obj-34", 0 ],
					"destination" : [ "obj-2", 0 ],
					"hidden" : 0,
					"midpoints" : [  ]
				}

			}
, 			{
				"patchline" : 				{
					"source" : [ "obj-3", 0 ],
					"destination" : [ "obj-2", 0 ],
					"hidden" : 0,
					"midpoints" : [  ]
				}

			}
, 			{
				"patchline" : 				{
					"source" : [ "obj-5", 0 ],
					"destination" : [ "obj-95", 0 ],
					"hidden" : 0,
					"midpoints" : [  ]
				}

			}
, 			{
				"patchline" : 				{
					"source" : [ "obj-93", 0 ],
					"destination" : [ "obj-5", 0 ],
					"hidden" : 0,
					"midpoints" : [  ]
				}

			}
, 			{
				"patchline" : 				{
					"source" : [ "obj-53", 0 ],
					"destination" : [ "obj-52", 1 ],
					"hidden" : 0,
					"midpoints" : [  ]
				}

			}
, 			{
				"patchline" : 				{
					"source" : [ "obj-20", 0 ],
					"destination" : [ "obj-52", 0 ],
					"hidden" : 0,
					"midpoints" : [ 425.5, 162.0, 388.5, 162.0 ]
				}

			}
, 			{
				"patchline" : 				{
					"source" : [ "obj-42", 0 ],
					"destination" : [ "obj-7", 0 ],
					"hidden" : 0,
					"midpoints" : [ 350.5, 333.0, 339.0, 333.0, 339.0, 309.0, 81.0, 309.0, 81.0, 234.0, 104.5, 234.0 ]
				}

			}
, 			{
				"patchline" : 				{
					"source" : [ "obj-42", 0 ],
					"destination" : [ "obj-47", 0 ],
					"hidden" : 0,
					"midpoints" : [ 350.5, 333.0, 380.5, 333.0 ]
				}

			}
, 			{
				"patchline" : 				{
					"source" : [ "obj-44", 0 ],
					"destination" : [ "obj-35", 0 ],
					"hidden" : 0,
					"midpoints" : [ 607.5, 297.0, 505.0, 297.0, 505.0, 351.0, 465.5, 351.0 ]
				}

			}
, 			{
				"patchline" : 				{
					"source" : [ "obj-43", 0 ],
					"destination" : [ "obj-44", 0 ],
					"hidden" : 0,
					"midpoints" : [  ]
				}

			}
, 			{
				"patchline" : 				{
					"source" : [ "obj-39", 0 ],
					"destination" : [ "obj-35", 4 ],
					"hidden" : 0,
					"midpoints" : [  ]
				}

			}
, 			{
				"patchline" : 				{
					"source" : [ "obj-38", 0 ],
					"destination" : [ "obj-35", 3 ],
					"hidden" : 0,
					"midpoints" : [  ]
				}

			}
, 			{
				"patchline" : 				{
					"source" : [ "obj-37", 0 ],
					"destination" : [ "obj-35", 2 ],
					"hidden" : 0,
					"midpoints" : [  ]
				}

			}
, 			{
				"patchline" : 				{
					"source" : [ "obj-36", 0 ],
					"destination" : [ "obj-35", 1 ],
					"hidden" : 0,
					"midpoints" : [  ]
				}

			}
, 			{
				"patchline" : 				{
					"source" : [ "obj-13", 0 ],
					"destination" : [ "obj-14", 0 ],
					"hidden" : 0,
					"midpoints" : [  ]
				}

			}
, 			{
				"patchline" : 				{
					"source" : [ "obj-46", 0 ],
					"destination" : [ "obj-54", 0 ],
					"hidden" : 0,
					"midpoints" : [  ]
				}

			}
, 			{
				"patchline" : 				{
					"source" : [ "obj-54", 0 ],
					"destination" : [ "obj-33", 1 ],
					"hidden" : 0,
					"midpoints" : [  ]
				}

			}
, 			{
				"patchline" : 				{
					"source" : [ "obj-54", 0 ],
					"destination" : [ "obj-55", 0 ],
					"hidden" : 0,
					"midpoints" : [  ]
				}

			}
, 			{
				"patchline" : 				{
					"source" : [ "obj-28", 0 ],
					"destination" : [ "obj-55", 0 ],
					"hidden" : 0,
					"midpoints" : [  ]
				}

			}
, 			{
				"patchline" : 				{
					"source" : [ "obj-28", 1 ],
					"destination" : [ "obj-46", 0 ],
					"hidden" : 0,
					"midpoints" : [ 367.5, 72.0, 393.0, 72.0, 393.0, 21.0, 405.5, 21.0 ]
				}

			}
, 			{
				"patchline" : 				{
					"source" : [ "obj-28", 0 ],
					"destination" : [ "obj-33", 1 ],
					"hidden" : 0,
					"midpoints" : [  ]
				}

			}
, 			{
				"patchline" : 				{
					"source" : [ "obj-29", 0 ],
					"destination" : [ "obj-28", 0 ],
					"hidden" : 0,
					"midpoints" : [  ]
				}

			}
, 			{
				"patchline" : 				{
					"source" : [ "obj-47", 0 ],
					"destination" : [ "obj-29", 0 ],
					"hidden" : 0,
					"midpoints" : [ 380.5, 363.0, 324.0, 363.0, 324.0, 159.0, 309.0, 159.0, 309.0, 21.0, 323.5, 21.0 ]
				}

			}
, 			{
				"patchline" : 				{
					"source" : [ "obj-45", 0 ],
					"destination" : [ "obj-56", 0 ],
					"hidden" : 0,
					"midpoints" : [  ]
				}

			}
, 			{
				"patchline" : 				{
					"source" : [ "obj-47", 0 ],
					"destination" : [ "obj-45", 0 ],
					"hidden" : 0,
					"midpoints" : [ 380.5, 363.0, 402.0, 363.0, 402.0, 228.0, 633.0, 228.0, 633.0, 84.0, 647.5, 84.0 ]
				}

			}
, 			{
				"patchline" : 				{
					"source" : [ "obj-60", 0 ],
					"destination" : [ "obj-58", 1 ],
					"hidden" : 0,
					"midpoints" : [  ]
				}

			}
, 			{
				"patchline" : 				{
					"source" : [ "obj-61", 0 ],
					"destination" : [ "obj-59", 1 ],
					"hidden" : 0,
					"midpoints" : [  ]
				}

			}
, 			{
				"patchline" : 				{
					"source" : [ "obj-59", 0 ],
					"destination" : [ "obj-62", 0 ],
					"hidden" : 0,
					"midpoints" : [  ]
				}

			}
, 			{
				"patchline" : 				{
					"source" : [ "obj-58", 0 ],
					"destination" : [ "obj-62", 0 ],
					"hidden" : 0,
					"midpoints" : [  ]
				}

			}
, 			{
				"patchline" : 				{
					"source" : [ "obj-66", 0 ],
					"destination" : [ "obj-65", 0 ],
					"hidden" : 0,
					"midpoints" : [  ]
				}

			}
, 			{
				"patchline" : 				{
					"source" : [ "obj-65", 0 ],
					"destination" : [ "obj-71", 0 ],
					"hidden" : 0,
					"midpoints" : [  ]
				}

			}
, 			{
				"patchline" : 				{
					"source" : [ "obj-42", 0 ],
					"destination" : [ "obj-35", 0 ],
					"hidden" : 0,
					"midpoints" : [ 350.5, 333.0, 438.0, 333.0, 438.0, 351.0, 465.5, 351.0 ]
				}

			}
, 			{
				"patchline" : 				{
					"source" : [ "obj-52", 0 ],
					"destination" : [ "obj-40", 0 ],
					"hidden" : 0,
					"midpoints" : [ 388.5, 231.0, 438.0, 231.0, 438.0, 402.0, 447.5, 402.0 ]
				}

			}
, 			{
				"patchline" : 				{
					"source" : [ "obj-75", 0 ],
					"destination" : [ "obj-18", 0 ],
					"hidden" : 0,
					"midpoints" : [  ]
				}

			}
, 			{
				"patchline" : 				{
					"source" : [ "obj-76", 0 ],
					"destination" : [ "obj-77", 0 ],
					"hidden" : 0,
					"midpoints" : [  ]
				}

			}
, 			{
				"patchline" : 				{
					"source" : [ "obj-77", 0 ],
					"destination" : [ "obj-18", 0 ],
					"hidden" : 0,
					"midpoints" : [  ]
				}

			}
, 			{
				"patchline" : 				{
					"source" : [ "obj-76", 0 ],
					"destination" : [ "obj-45", 0 ],
					"hidden" : 0,
					"midpoints" : [ 557.5, 39.0, 647.5, 39.0 ]
				}

			}
, 			{
				"patchline" : 				{
					"source" : [ "obj-79", 0 ],
					"destination" : [ "obj-59", 0 ],
					"hidden" : 0,
					"midpoints" : [ 639.5, 432.0, 480.0, 432.0, 480.0, 396.0, 219.0, 396.0, 219.0, 342.0, 102.0, 342.0, 102.0, 336.0, 79.5, 336.0 ]
				}

			}
, 			{
				"patchline" : 				{
					"source" : [ "obj-82", 0 ],
					"destination" : [ "obj-79", 1 ],
					"hidden" : 0,
					"midpoints" : [  ]
				}

			}
, 			{
				"patchline" : 				{
					"source" : [ "obj-12", 0 ],
					"destination" : [ "obj-79", 2 ],
					"hidden" : 0,
					"midpoints" : [  ]
				}

			}
, 			{
				"patchline" : 				{
					"source" : [ "obj-85", 0 ],
					"destination" : [ "obj-84", 0 ],
					"hidden" : 0,
					"midpoints" : [  ]
				}

			}
, 			{
				"patchline" : 				{
					"source" : [ "obj-83", 0 ],
					"destination" : [ "obj-84", 0 ],
					"hidden" : 0,
					"midpoints" : [  ]
				}

			}
, 			{
				"patchline" : 				{
					"source" : [ "obj-19", 0 ],
					"destination" : [ "obj-20", 1 ],
					"hidden" : 0,
					"midpoints" : [  ]
				}

			}
, 			{
				"patchline" : 				{
					"source" : [ "obj-33", 0 ],
					"destination" : [ "obj-20", 0 ],
					"hidden" : 0,
					"midpoints" : [ 339.5, 150.0, 402.0, 150.0, 402.0, 141.0, 425.5, 141.0 ]
				}

			}
, 			{
				"patchline" : 				{
					"source" : [ "obj-87", 0 ],
					"destination" : [ "obj-86", 1 ],
					"hidden" : 0,
					"midpoints" : [  ]
				}

			}
, 			{
				"patchline" : 				{
					"source" : [ "obj-86", 0 ],
					"destination" : [ "obj-83", 0 ],
					"hidden" : 0,
					"midpoints" : [  ]
				}

			}
, 			{
				"patchline" : 				{
					"source" : [ "obj-84", 0 ],
					"destination" : [ "obj-40", 0 ],
					"hidden" : 0,
					"midpoints" : [ 778.5, 444.0, 480.0, 444.0, 480.0, 414.0, 447.5, 414.0 ]
				}

			}
, 			{
				"patchline" : 				{
					"source" : [ "obj-34", 0 ],
					"destination" : [ "obj-76", 0 ],
					"hidden" : 0,
					"midpoints" : [ 187.5, 45.0, 225.0, 45.0, 225.0, 0.0, 543.0, 0.0, 543.0, -3.0, 557.5, -3.0 ]
				}

			}
, 			{
				"patchline" : 				{
					"source" : [ "obj-49", 0 ],
					"destination" : [ "obj-7", 0 ],
					"hidden" : 0,
					"midpoints" : [ 92.5, 225.0, 104.5, 225.0 ]
				}

			}
, 			{
				"patchline" : 				{
					"source" : [ "obj-35", 0 ],
					"destination" : [ "obj-40", 1 ],
					"hidden" : 0,
					"midpoints" : [  ]
				}

			}
, 			{
				"patchline" : 				{
					"source" : [ "obj-48", 0 ],
					"destination" : [ "obj-88", 0 ],
					"hidden" : 0,
					"midpoints" : [ 369.5, 387.0, 324.0, 387.0, 324.0, 159.0, 75.0, 159.0, 75.0, 141.0, 36.5, 141.0 ]
				}

			}
, 			{
				"patchline" : 				{
					"source" : [ "obj-48", 0 ],
					"destination" : [ "obj-49", 0 ],
					"hidden" : 0,
					"midpoints" : [ 369.5, 387.0, 324.0, 387.0, 324.0, 177.0, 92.5, 177.0 ]
				}

			}
, 			{
				"patchline" : 				{
					"source" : [ "obj-47", 0 ],
					"destination" : [ "obj-48", 0 ],
					"hidden" : 0,
					"midpoints" : [  ]
				}

			}
, 			{
				"patchline" : 				{
					"source" : [ "obj-48", 0 ],
					"destination" : [ "obj-75", 0 ],
					"hidden" : 0,
					"midpoints" : [ 369.5, 396.0, 441.0, 396.0, 441.0, 228.0, 489.0, 228.0, 489.0, 57.0, 513.5, 57.0 ]
				}

			}
, 			{
				"patchline" : 				{
					"source" : [ "obj-71", 0 ],
					"destination" : [ "obj-42", 0 ],
					"hidden" : 0,
					"midpoints" : [ 682.5, 258.0, 660.0, 258.0, 660.0, 240.0, 420.0, 240.0, 420.0, 309.0, 350.5, 309.0 ]
				}

			}
, 			{
				"patchline" : 				{
					"source" : [ "obj-90", 0 ],
					"destination" : [ "obj-17", 0 ],
					"hidden" : 0,
					"midpoints" : [ 129.5, 177.0, 181.5, 177.0 ]
				}

			}
, 			{
				"patchline" : 				{
					"source" : [ "obj-90", 0 ],
					"destination" : [ "obj-40", 0 ],
					"hidden" : 0,
					"midpoints" : [ 129.5, 177.0, 327.0, 177.0, 327.0, 402.0, 447.5, 402.0 ]
				}

			}
, 			{
				"patchline" : 				{
					"source" : [ "obj-90", 0 ],
					"destination" : [ "obj-58", 0 ],
					"hidden" : 0,
					"midpoints" : [ 129.5, 225.0, 75.0, 225.0, 75.0, 297.0, 15.0, 297.0, 15.0, 336.0, 24.5, 336.0 ]
				}

			}
, 			{
				"patchline" : 				{
					"source" : [ "obj-58", 0 ],
					"destination" : [ "obj-91", 0 ],
					"hidden" : 0,
					"midpoints" : [ 24.5, 363.0, 10.0, 363.0, 10.0, 405.0, 59.5, 405.0 ]
				}

			}
, 			{
				"patchline" : 				{
					"source" : [ "obj-59", 0 ],
					"destination" : [ "obj-91", 0 ],
					"hidden" : 0,
					"midpoints" : [ 79.5, 363.0, 111.0, 363.0, 111.0, 405.0, 59.5, 405.0 ]
				}

			}
, 			{
				"patchline" : 				{
					"source" : [ "obj-95", 0 ],
					"destination" : [ "obj-92", 0 ],
					"hidden" : 0,
					"midpoints" : [  ]
				}

			}
 ]
	}

}
