{
	"patcher" : 	{
		"fileversion" : 1,
		"rect" : [ 607.0, 44.0, 601.0, 194.0 ],
		"bglocked" : 0,
		"defrect" : [ 607.0, 44.0, 601.0, 194.0 ],
		"openrect" : [ 837.0, 44.0, 601.0, 194.0 ],
		"openinpresentation" : 1,
		"default_fontsize" : 12.0,
		"default_fontface" : 0,
		"default_fontname" : "Arial",
		"gridonopen" : 0,
		"gridsize" : [ 15.0, 15.0 ],
		"gridsnaponopen" : 0,
		"toolbarvisible" : 1,
		"boxanimatetime" : 200,
		"imprint" : 0,
		"enablehscroll" : 1,
		"enablevscroll" : 1,
		"boxes" : [ 			{
				"box" : 				{
					"maxclass" : "outlet",
					"patching_rect" : [ 699.0, 143.0, 25.0, 25.0 ],
					"id" : "obj-37",
					"numinlets" : 1,
					"numoutlets" : 0,
					"comment" : ""
				}

			}
, 			{
				"box" : 				{
					"maxclass" : "outlet",
					"patching_rect" : [ 673.0, 143.0, 25.0, 25.0 ],
					"id" : "obj-36",
					"numinlets" : 1,
					"numoutlets" : 0,
					"comment" : ""
				}

			}
, 			{
				"box" : 				{
					"maxclass" : "outlet",
					"patching_rect" : [ 647.0, 143.0, 25.0, 25.0 ],
					"id" : "obj-35",
					"numinlets" : 1,
					"numoutlets" : 0,
					"comment" : ""
				}

			}
, 			{
				"box" : 				{
					"maxclass" : "outlet",
					"patching_rect" : [ 621.0, 143.0, 25.0, 25.0 ],
					"id" : "obj-34",
					"numinlets" : 1,
					"numoutlets" : 0,
					"comment" : ""
				}

			}
, 			{
				"box" : 				{
					"maxclass" : "outlet",
					"patching_rect" : [ 595.0, 143.0, 25.0, 25.0 ],
					"id" : "obj-33",
					"numinlets" : 1,
					"numoutlets" : 0,
					"comment" : ""
				}

			}
, 			{
				"box" : 				{
					"maxclass" : "outlet",
					"patching_rect" : [ 569.0, 143.0, 25.0, 25.0 ],
					"id" : "obj-32",
					"numinlets" : 1,
					"numoutlets" : 0,
					"comment" : ""
				}

			}
, 			{
				"box" : 				{
					"maxclass" : "outlet",
					"patching_rect" : [ 543.0, 143.0, 25.0, 25.0 ],
					"id" : "obj-31",
					"numinlets" : 1,
					"numoutlets" : 0,
					"comment" : ""
				}

			}
, 			{
				"box" : 				{
					"maxclass" : "outlet",
					"patching_rect" : [ 517.0, 143.0, 25.0, 25.0 ],
					"id" : "obj-30",
					"numinlets" : 1,
					"numoutlets" : 0,
					"comment" : ""
				}

			}
, 			{
				"box" : 				{
					"maxclass" : "outlet",
					"patching_rect" : [ 491.0, 143.0, 25.0, 25.0 ],
					"id" : "obj-29",
					"numinlets" : 1,
					"numoutlets" : 0,
					"comment" : ""
				}

			}
, 			{
				"box" : 				{
					"maxclass" : "outlet",
					"patching_rect" : [ 465.0, 143.0, 25.0, 25.0 ],
					"id" : "obj-28",
					"numinlets" : 1,
					"numoutlets" : 0,
					"comment" : ""
				}

			}
, 			{
				"box" : 				{
					"maxclass" : "outlet",
					"patching_rect" : [ 439.0, 143.0, 25.0, 25.0 ],
					"id" : "obj-27",
					"numinlets" : 1,
					"numoutlets" : 0,
					"comment" : ""
				}

			}
, 			{
				"box" : 				{
					"maxclass" : "outlet",
					"patching_rect" : [ 413.0, 143.0, 25.0, 25.0 ],
					"id" : "obj-26",
					"numinlets" : 1,
					"numoutlets" : 0,
					"comment" : ""
				}

			}
, 			{
				"box" : 				{
					"maxclass" : "outlet",
					"patching_rect" : [ 387.0, 143.0, 25.0, 25.0 ],
					"id" : "obj-25",
					"numinlets" : 1,
					"numoutlets" : 0,
					"comment" : ""
				}

			}
, 			{
				"box" : 				{
					"maxclass" : "outlet",
					"patching_rect" : [ 361.0, 143.0, 25.0, 25.0 ],
					"id" : "obj-24",
					"numinlets" : 1,
					"numoutlets" : 0,
					"comment" : ""
				}

			}
, 			{
				"box" : 				{
					"maxclass" : "outlet",
					"patching_rect" : [ 335.0, 143.0, 25.0, 25.0 ],
					"id" : "obj-23",
					"numinlets" : 1,
					"numoutlets" : 0,
					"comment" : ""
				}

			}
, 			{
				"box" : 				{
					"maxclass" : "outlet",
					"patching_rect" : [ 309.0, 143.0, 25.0, 25.0 ],
					"id" : "obj-22",
					"numinlets" : 1,
					"numoutlets" : 0,
					"comment" : ""
				}

			}
, 			{
				"box" : 				{
					"maxclass" : "outlet",
					"patching_rect" : [ 283.0, 143.0, 25.0, 25.0 ],
					"id" : "obj-21",
					"numinlets" : 1,
					"numoutlets" : 0,
					"comment" : ""
				}

			}
, 			{
				"box" : 				{
					"maxclass" : "outlet",
					"patching_rect" : [ 257.0, 143.0, 25.0, 25.0 ],
					"id" : "obj-18",
					"numinlets" : 1,
					"numoutlets" : 0,
					"comment" : ""
				}

			}
, 			{
				"box" : 				{
					"maxclass" : "button",
					"patching_rect" : [ 275.0, 77.0, 36.0, 36.0 ],
					"outlettype" : [ "bang" ],
					"presentation" : 1,
					"id" : "obj-17",
					"numinlets" : 1,
					"presentation_rect" : [ 274.0, 7.0, 36.0, 36.0 ],
					"numoutlets" : 1
				}

			}
, 			{
				"box" : 				{
					"maxclass" : "led",
					"patching_rect" : [ 630.0, 280.0, 45.0, 45.0 ],
					"outlettype" : [ "int" ],
					"presentation" : 1,
					"id" : "obj-10",
					"numinlets" : 1,
					"presentation_rect" : [ 506.0, 125.0, 45.0, 45.0 ],
					"numoutlets" : 1
				}

			}
, 			{
				"box" : 				{
					"maxclass" : "led",
					"patching_rect" : [ 566.0, 280.0, 45.0, 45.0 ],
					"outlettype" : [ "int" ],
					"presentation" : 1,
					"id" : "obj-11",
					"numinlets" : 1,
					"presentation_rect" : [ 442.0, 125.0, 45.0, 45.0 ],
					"numoutlets" : 1
				}

			}
, 			{
				"box" : 				{
					"maxclass" : "led",
					"patching_rect" : [ 658.0, 210.0, 45.0, 45.0 ],
					"outlettype" : [ "int" ],
					"presentation" : 1,
					"id" : "obj-12",
					"numinlets" : 1,
					"presentation_rect" : [ 538.0, 54.0, 45.0, 45.0 ],
					"numoutlets" : 1
				}

			}
, 			{
				"box" : 				{
					"maxclass" : "led",
					"patching_rect" : [ 594.0, 210.0, 45.0, 45.0 ],
					"outlettype" : [ "int" ],
					"presentation" : 1,
					"id" : "obj-13",
					"numinlets" : 1,
					"presentation_rect" : [ 474.0, 54.0, 45.0, 45.0 ],
					"numoutlets" : 1
				}

			}
, 			{
				"box" : 				{
					"maxclass" : "led",
					"patching_rect" : [ 530.0, 210.0, 45.0, 45.0 ],
					"outlettype" : [ "int" ],
					"presentation" : 1,
					"id" : "obj-14",
					"numinlets" : 1,
					"presentation_rect" : [ 410.0, 54.0, 45.0, 45.0 ],
					"numoutlets" : 1
				}

			}
, 			{
				"box" : 				{
					"maxclass" : "led",
					"patching_rect" : [ 502.0, 280.0, 45.0, 45.0 ],
					"outlettype" : [ "int" ],
					"presentation" : 1,
					"id" : "obj-8",
					"numinlets" : 1,
					"presentation_rect" : [ 378.0, 125.0, 45.0, 45.0 ],
					"numoutlets" : 1
				}

			}
, 			{
				"box" : 				{
					"maxclass" : "led",
					"patching_rect" : [ 438.0, 280.0, 45.0, 45.0 ],
					"outlettype" : [ "int" ],
					"presentation" : 1,
					"id" : "obj-6",
					"numinlets" : 1,
					"presentation_rect" : [ 314.0, 125.0, 45.0, 45.0 ],
					"numoutlets" : 1
				}

			}
, 			{
				"box" : 				{
					"maxclass" : "led",
					"patching_rect" : [ 374.0, 280.0, 45.0, 45.0 ],
					"outlettype" : [ "int" ],
					"presentation" : 1,
					"id" : "obj-5",
					"numinlets" : 1,
					"presentation_rect" : [ 250.0, 125.0, 45.0, 45.0 ],
					"numoutlets" : 1
				}

			}
, 			{
				"box" : 				{
					"maxclass" : "led",
					"patching_rect" : [ 466.0, 210.0, 45.0, 45.0 ],
					"outlettype" : [ "int" ],
					"presentation" : 1,
					"id" : "obj-4",
					"numinlets" : 1,
					"presentation_rect" : [ 346.0, 54.0, 45.0, 45.0 ],
					"numoutlets" : 1
				}

			}
, 			{
				"box" : 				{
					"maxclass" : "led",
					"patching_rect" : [ 402.0, 210.0, 45.0, 45.0 ],
					"outlettype" : [ "int" ],
					"presentation" : 1,
					"id" : "obj-2",
					"numinlets" : 1,
					"presentation_rect" : [ 282.0, 54.0, 45.0, 45.0 ],
					"numoutlets" : 1
				}

			}
, 			{
				"box" : 				{
					"maxclass" : "led",
					"patching_rect" : [ 338.0, 210.0, 45.0, 45.0 ],
					"outlettype" : [ "int" ],
					"presentation" : 1,
					"id" : "obj-1",
					"numinlets" : 1,
					"presentation_rect" : [ 218.0, 54.0, 45.0, 45.0 ],
					"numoutlets" : 1
				}

			}
, 			{
				"box" : 				{
					"maxclass" : "message",
					"text" : "1",
					"patching_rect" : [ 273.0, 34.0, 32.5, 18.0 ],
					"outlettype" : [ "" ],
					"id" : "obj-111",
					"fontname" : "Arial",
					"fontsize" : 12.0,
					"numinlets" : 2,
					"numoutlets" : 1
				}

			}
, 			{
				"box" : 				{
					"maxclass" : "newobj",
					"text" : "loadbang",
					"patching_rect" : [ 272.0, 11.0, 60.0, 20.0 ],
					"outlettype" : [ "bang" ],
					"id" : "obj-99",
					"fontname" : "Arial",
					"fontsize" : 12.0,
					"numinlets" : 1,
					"numoutlets" : 1
				}

			}
, 			{
				"box" : 				{
					"maxclass" : "newobj",
					"text" : "scale 0. 1. 0 127",
					"patching_rect" : [ 10.0, 263.0, 99.0, 20.0 ],
					"outlettype" : [ "" ],
					"id" : "obj-75",
					"fontname" : "Arial",
					"fontsize" : 12.0,
					"numinlets" : 6,
					"numoutlets" : 1
				}

			}
, 			{
				"box" : 				{
					"maxclass" : "dial",
					"outlinecolor" : [ 0.658824, 0.658824, 0.658824, 1.0 ],
					"patching_rect" : [ 10.0, 287.0, 46.0, 46.0 ],
					"outlettype" : [ "float" ],
					"presentation" : 1,
					"id" : "obj-85",
					"fgcolor" : [ 0.901961, 0.023529, 0.023529, 1.0 ],
					"bgcolor" : [ 0.0, 0.0, 0.0, 1.0 ],
					"needlecolor" : [ 0.0, 0.0, 0.0, 1.0 ],
					"numinlets" : 1,
					"presentation_rect" : [ 15.0, 125.0, 45.0, 45.0 ],
					"numoutlets" : 1
				}

			}
, 			{
				"box" : 				{
					"maxclass" : "newobj",
					"text" : "scale 0. 1. 0 127",
					"patching_rect" : [ 111.0, 263.0, 99.0, 20.0 ],
					"outlettype" : [ "" ],
					"id" : "obj-87",
					"fontname" : "Arial",
					"fontsize" : 12.0,
					"numinlets" : 6,
					"numoutlets" : 1
				}

			}
, 			{
				"box" : 				{
					"maxclass" : "dial",
					"outlinecolor" : [ 0.658824, 0.658824, 0.658824, 1.0 ],
					"patching_rect" : [ 111.0, 287.0, 46.0, 46.0 ],
					"outlettype" : [ "float" ],
					"presentation" : 1,
					"id" : "obj-97",
					"fgcolor" : [ 0.901961, 0.023529, 0.023529, 1.0 ],
					"bgcolor" : [ 0.0, 0.0, 0.0, 1.0 ],
					"needlecolor" : [ 0.0, 0.0, 0.0, 1.0 ],
					"numinlets" : 1,
					"presentation_rect" : [ 81.0, 125.0, 45.0, 45.0 ],
					"numoutlets" : 1
				}

			}
, 			{
				"box" : 				{
					"maxclass" : "newobj",
					"text" : "scale 0. 1. 0 127",
					"patching_rect" : [ 10.0, 186.0, 99.0, 20.0 ],
					"outlettype" : [ "" ],
					"id" : "obj-59",
					"fontname" : "Arial",
					"fontsize" : 12.0,
					"numinlets" : 6,
					"numoutlets" : 1
				}

			}
, 			{
				"box" : 				{
					"maxclass" : "dial",
					"outlinecolor" : [ 0.658824, 0.658824, 0.658824, 1.0 ],
					"patching_rect" : [ 10.0, 210.0, 46.0, 46.0 ],
					"outlettype" : [ "float" ],
					"presentation" : 1,
					"id" : "obj-73",
					"fgcolor" : [ 0.901961, 0.023529, 0.023529, 1.0 ],
					"bgcolor" : [ 0.0, 0.0, 0.0, 1.0 ],
					"needlecolor" : [ 0.0, 0.0, 0.0, 1.0 ],
					"numinlets" : 1,
					"presentation_rect" : [ 15.0, 54.0, 45.0, 45.0 ],
					"numoutlets" : 1
				}

			}
, 			{
				"box" : 				{
					"maxclass" : "newobj",
					"text" : "scale 0. 1. 0 127",
					"patching_rect" : [ 111.0, 186.0, 99.0, 20.0 ],
					"outlettype" : [ "" ],
					"id" : "obj-57",
					"fontname" : "Arial",
					"fontsize" : 12.0,
					"numinlets" : 6,
					"numoutlets" : 1
				}

			}
, 			{
				"box" : 				{
					"maxclass" : "dial",
					"outlinecolor" : [ 0.658824, 0.658824, 0.658824, 1.0 ],
					"patching_rect" : [ 111.0, 210.0, 46.0, 46.0 ],
					"outlettype" : [ "float" ],
					"presentation" : 1,
					"id" : "obj-58",
					"fgcolor" : [ 0.901961, 0.023529, 0.023529, 1.0 ],
					"bgcolor" : [ 0.0, 0.0, 0.0, 1.0 ],
					"needlecolor" : [ 0.0, 0.0, 0.0, 1.0 ],
					"numinlets" : 1,
					"presentation_rect" : [ 81.0, 54.0, 45.0, 45.0 ],
					"numoutlets" : 1
				}

			}
, 			{
				"box" : 				{
					"maxclass" : "newobj",
					"text" : "scale 0. 1. 0 127",
					"patching_rect" : [ 211.0, 186.0, 99.0, 20.0 ],
					"outlettype" : [ "" ],
					"id" : "obj-54",
					"fontname" : "Arial",
					"fontsize" : 12.0,
					"numinlets" : 6,
					"numoutlets" : 1
				}

			}
, 			{
				"box" : 				{
					"maxclass" : "dial",
					"outlinecolor" : [ 0.658824, 0.658824, 0.658824, 1.0 ],
					"patching_rect" : [ 211.0, 210.0, 46.0, 46.0 ],
					"outlettype" : [ "float" ],
					"presentation" : 1,
					"id" : "obj-55",
					"fgcolor" : [ 0.901961, 0.023529, 0.023529, 1.0 ],
					"bgcolor" : [ 0.0, 0.0, 0.0, 1.0 ],
					"needlecolor" : [ 0.0, 0.0, 0.0, 1.0 ],
					"numinlets" : 1,
					"presentation_rect" : [ 146.0, 54.0, 45.0, 45.0 ],
					"numoutlets" : 1
				}

			}
, 			{
				"box" : 				{
					"maxclass" : "newobj",
					"text" : "scale 0. 1. 0 127",
					"patching_rect" : [ 211.0, 263.0, 99.0, 20.0 ],
					"outlettype" : [ "" ],
					"id" : "obj-53",
					"fontname" : "Arial",
					"fontsize" : 12.0,
					"numinlets" : 6,
					"numoutlets" : 1
				}

			}
, 			{
				"box" : 				{
					"maxclass" : "dial",
					"outlinecolor" : [ 0.658824, 0.658824, 0.658824, 1.0 ],
					"patching_rect" : [ 211.0, 287.0, 46.0, 46.0 ],
					"outlettype" : [ "float" ],
					"presentation" : 1,
					"id" : "obj-52",
					"fgcolor" : [ 0.901961, 0.023529, 0.023529, 1.0 ],
					"bgcolor" : [ 0.0, 0.0, 0.0, 1.0 ],
					"needlecolor" : [ 0.0, 0.0, 0.0, 1.0 ],
					"numinlets" : 1,
					"presentation_rect" : [ 146.0, 125.0, 45.0, 45.0 ],
					"numoutlets" : 1
				}

			}
, 			{
				"box" : 				{
					"maxclass" : "newobj",
					"text" : "arduinoserial_didge",
					"patching_rect" : [ 10.0, 63.0, 248.5, 20.0 ],
					"outlettype" : [ "float", "float", "float", "float", "float", "float", "int", "int", "int", "int", "int", "int", "int", "int", "int", "int", "int" ],
					"presentation" : 1,
					"id" : "obj-221",
					"fontname" : "Arial",
					"fontsize" : 12.0,
					"numinlets" : 2,
					"presentation_rect" : [ 9.0, 16.0, 248.5, 20.0 ],
					"numoutlets" : 17
				}

			}
, 			{
				"box" : 				{
					"maxclass" : "preset",
					"patching_rect" : [ 273.0, 55.0, 56.0, 17.0 ],
					"outlettype" : [ "preset", "int", "preset", "int" ],
					"id" : "obj-3",
					"numinlets" : 1,
					"numoutlets" : 4,
					"preset_data" : [ 						{
							"number" : 1,
							"data" : [ 5, "<invalid>", "slider", "float", 17.0, 5, "<invalid>", "slider", "float", 17.0, 5, "<invalid>", "flonum", "float", 500.0, 5, "<invalid>", "toggle", "int", 0, 5, "<invalid>", "slider", "float", 110.0, 5, "<invalid>", "slider", "float", 110.0, 5, "<invalid>", "flonum", "float", 500.0, 5, "<invalid>", "slider", "float", 95.0, 5, "<invalid>", "slider", "float", 95.0, 5, "<invalid>", "flonum", "float", 500.0, 5, "<invalid>", "slider", "float", 6.0, 5, "<invalid>", "slider", "float", 6.0, 5, "<invalid>", "flonum", "float", 500.0, 5, "<invalid>", "slider", "float", 112.0, 5, "<invalid>", "slider", "float", 112.0, 5, "<invalid>", "flonum", "float", 500.0, 5, "<invalid>", "slider", "float", 9.0, 5, "<invalid>", "slider", "float", 9.0, 5, "<invalid>", "flonum", "float", 500.0, 5, "<invalid>", "dial", "float", 17.0, 5, "<invalid>", "dial", "float", 110.0, 5, "<invalid>", "dial", "float", 95.0, 5, "<invalid>", "dial", "float", 6.0, 5, "<invalid>", "dial", "float", 112.0, 5, "<invalid>", "dial", "float", 9.0, 5, "<invalid>", "toggle", "int", 0, 5, "<invalid>", "toggle", "int", 0, 5, "<invalid>", "toggle", "int", 0, 5, "<invalid>", "flonum", "float", 0.133858, 5, "<invalid>", "flonum", "float", 0.748031, 5, "<invalid>", "flonum", "float", 0.88189, 5, "<invalid>", "flonum", "float", 0.866142, 5, "<invalid>", "flonum", "float", 0.047244, 5, "<invalid>", "flonum", "float", 0.070866, 5, "<invalid>", "number", "int", 172, 5, "<invalid>", "number", "int", 38 ]
						}
 ]
				}

			}
 ],
		"lines" : [ 			{
				"patchline" : 				{
					"source" : [ "obj-53", 0 ],
					"destination" : [ "obj-52", 0 ],
					"hidden" : 0,
					"midpoints" : [  ]
				}

			}
, 			{
				"patchline" : 				{
					"source" : [ "obj-54", 0 ],
					"destination" : [ "obj-55", 0 ],
					"hidden" : 0,
					"midpoints" : [  ]
				}

			}
, 			{
				"patchline" : 				{
					"source" : [ "obj-57", 0 ],
					"destination" : [ "obj-58", 0 ],
					"hidden" : 0,
					"midpoints" : [  ]
				}

			}
, 			{
				"patchline" : 				{
					"source" : [ "obj-59", 0 ],
					"destination" : [ "obj-73", 0 ],
					"hidden" : 0,
					"midpoints" : [  ]
				}

			}
, 			{
				"patchline" : 				{
					"source" : [ "obj-75", 0 ],
					"destination" : [ "obj-85", 0 ],
					"hidden" : 0,
					"midpoints" : [  ]
				}

			}
, 			{
				"patchline" : 				{
					"source" : [ "obj-87", 0 ],
					"destination" : [ "obj-97", 0 ],
					"hidden" : 0,
					"midpoints" : [  ]
				}

			}
, 			{
				"patchline" : 				{
					"source" : [ "obj-111", 0 ],
					"destination" : [ "obj-3", 0 ],
					"hidden" : 0,
					"midpoints" : [  ]
				}

			}
, 			{
				"patchline" : 				{
					"source" : [ "obj-99", 0 ],
					"destination" : [ "obj-111", 0 ],
					"hidden" : 0,
					"midpoints" : [  ]
				}

			}
, 			{
				"patchline" : 				{
					"source" : [ "obj-221", 2 ],
					"destination" : [ "obj-54", 0 ],
					"hidden" : 0,
					"midpoints" : [ 48.1875, 171.0, 220.5, 171.0 ]
				}

			}
, 			{
				"patchline" : 				{
					"source" : [ "obj-221", 1 ],
					"destination" : [ "obj-57", 0 ],
					"hidden" : 0,
					"midpoints" : [ 33.84375, 171.0, 120.5, 171.0 ]
				}

			}
, 			{
				"patchline" : 				{
					"source" : [ "obj-221", 0 ],
					"destination" : [ "obj-59", 0 ],
					"hidden" : 0,
					"midpoints" : [ 19.5, 84.0, 19.5, 84.0 ]
				}

			}
, 			{
				"patchline" : 				{
					"source" : [ "obj-221", 3 ],
					"destination" : [ "obj-75", 0 ],
					"hidden" : 0,
					"midpoints" : [ 62.53125, 171.0, 6.0, 171.0, 6.0, 258.0, 19.5, 258.0 ]
				}

			}
, 			{
				"patchline" : 				{
					"source" : [ "obj-221", 4 ],
					"destination" : [ "obj-87", 0 ],
					"hidden" : 0,
					"midpoints" : [ 76.875, 171.0, 6.0, 171.0, 6.0, 207.0, 66.0, 207.0, 66.0, 249.0, 108.0, 249.0, 108.0, 258.0, 120.5, 258.0 ]
				}

			}
, 			{
				"patchline" : 				{
					"source" : [ "obj-221", 5 ],
					"destination" : [ "obj-53", 0 ],
					"hidden" : 0,
					"midpoints" : [ 91.21875, 171.0, 321.0, 171.0, 321.0, 216.0, 267.0, 216.0, 267.0, 258.0, 220.5, 258.0 ]
				}

			}
, 			{
				"patchline" : 				{
					"source" : [ "obj-221", 6 ],
					"destination" : [ "obj-1", 0 ],
					"hidden" : 0,
					"midpoints" : [ 105.5625, 171.0, 347.5, 171.0 ]
				}

			}
, 			{
				"patchline" : 				{
					"source" : [ "obj-221", 7 ],
					"destination" : [ "obj-2", 0 ],
					"hidden" : 0,
					"midpoints" : [ 119.90625, 171.0, 411.5, 171.0 ]
				}

			}
, 			{
				"patchline" : 				{
					"source" : [ "obj-221", 8 ],
					"destination" : [ "obj-4", 0 ],
					"hidden" : 0,
					"midpoints" : [ 134.25, 171.0, 475.5, 171.0 ]
				}

			}
, 			{
				"patchline" : 				{
					"source" : [ "obj-221", 9 ],
					"destination" : [ "obj-14", 0 ],
					"hidden" : 0,
					"midpoints" : [ 148.59375, 171.0, 539.5, 171.0 ]
				}

			}
, 			{
				"patchline" : 				{
					"source" : [ "obj-221", 10 ],
					"destination" : [ "obj-13", 0 ],
					"hidden" : 0,
					"midpoints" : [ 162.9375, 171.0, 603.5, 171.0 ]
				}

			}
, 			{
				"patchline" : 				{
					"source" : [ "obj-221", 11 ],
					"destination" : [ "obj-12", 0 ],
					"hidden" : 0,
					"midpoints" : [ 177.28125, 171.0, 667.5, 171.0 ]
				}

			}
, 			{
				"patchline" : 				{
					"source" : [ "obj-221", 12 ],
					"destination" : [ "obj-5", 0 ],
					"hidden" : 0,
					"midpoints" : [ 191.625, 171.0, 324.0, 171.0, 324.0, 273.0, 383.5, 273.0 ]
				}

			}
, 			{
				"patchline" : 				{
					"source" : [ "obj-221", 13 ],
					"destination" : [ "obj-6", 0 ],
					"hidden" : 0,
					"midpoints" : [ 205.96875, 171.0, 324.0, 171.0, 324.0, 273.0, 447.5, 273.0 ]
				}

			}
, 			{
				"patchline" : 				{
					"source" : [ "obj-221", 14 ],
					"destination" : [ "obj-8", 0 ],
					"hidden" : 0,
					"midpoints" : [ 220.3125, 171.0, 324.0, 171.0, 324.0, 273.0, 511.5, 273.0 ]
				}

			}
, 			{
				"patchline" : 				{
					"source" : [ "obj-221", 15 ],
					"destination" : [ "obj-11", 0 ],
					"hidden" : 0,
					"midpoints" : [ 234.65625, 171.0, 324.0, 171.0, 324.0, 273.0, 575.5, 273.0 ]
				}

			}
, 			{
				"patchline" : 				{
					"source" : [ "obj-221", 16 ],
					"destination" : [ "obj-10", 0 ],
					"hidden" : 0,
					"midpoints" : [ 249.0, 171.0, 324.0, 171.0, 324.0, 273.0, 639.5, 273.0 ]
				}

			}
, 			{
				"patchline" : 				{
					"source" : [ "obj-17", 0 ],
					"destination" : [ "obj-221", 1 ],
					"hidden" : 0,
					"midpoints" : [ 284.5, 114.0, 258.0, 114.0, 258.0, 60.0, 249.0, 60.0 ]
				}

			}
, 			{
				"patchline" : 				{
					"source" : [ "obj-221", 0 ],
					"destination" : [ "obj-18", 0 ],
					"hidden" : 0,
					"midpoints" : [ 19.5, 129.0, 266.5, 129.0 ]
				}

			}
, 			{
				"patchline" : 				{
					"source" : [ "obj-221", 1 ],
					"destination" : [ "obj-21", 0 ],
					"hidden" : 0,
					"midpoints" : [ 33.84375, 129.0, 292.5, 129.0 ]
				}

			}
, 			{
				"patchline" : 				{
					"source" : [ "obj-221", 2 ],
					"destination" : [ "obj-22", 0 ],
					"hidden" : 0,
					"midpoints" : [ 48.1875, 129.0, 318.5, 129.0 ]
				}

			}
, 			{
				"patchline" : 				{
					"source" : [ "obj-221", 3 ],
					"destination" : [ "obj-23", 0 ],
					"hidden" : 0,
					"midpoints" : [ 62.53125, 129.0, 344.5, 129.0 ]
				}

			}
, 			{
				"patchline" : 				{
					"source" : [ "obj-221", 4 ],
					"destination" : [ "obj-24", 0 ],
					"hidden" : 0,
					"midpoints" : [ 76.875, 129.0, 370.5, 129.0 ]
				}

			}
, 			{
				"patchline" : 				{
					"source" : [ "obj-221", 5 ],
					"destination" : [ "obj-25", 0 ],
					"hidden" : 0,
					"midpoints" : [ 91.21875, 129.0, 396.5, 129.0 ]
				}

			}
, 			{
				"patchline" : 				{
					"source" : [ "obj-221", 6 ],
					"destination" : [ "obj-26", 0 ],
					"hidden" : 0,
					"midpoints" : [ 105.5625, 129.0, 422.5, 129.0 ]
				}

			}
, 			{
				"patchline" : 				{
					"source" : [ "obj-221", 7 ],
					"destination" : [ "obj-27", 0 ],
					"hidden" : 0,
					"midpoints" : [ 119.90625, 129.0, 448.5, 129.0 ]
				}

			}
, 			{
				"patchline" : 				{
					"source" : [ "obj-221", 8 ],
					"destination" : [ "obj-28", 0 ],
					"hidden" : 0,
					"midpoints" : [ 134.25, 129.0, 474.5, 129.0 ]
				}

			}
, 			{
				"patchline" : 				{
					"source" : [ "obj-221", 9 ],
					"destination" : [ "obj-29", 0 ],
					"hidden" : 0,
					"midpoints" : [ 148.59375, 129.0, 500.5, 129.0 ]
				}

			}
, 			{
				"patchline" : 				{
					"source" : [ "obj-221", 10 ],
					"destination" : [ "obj-30", 0 ],
					"hidden" : 0,
					"midpoints" : [ 162.9375, 129.0, 526.5, 129.0 ]
				}

			}
, 			{
				"patchline" : 				{
					"source" : [ "obj-221", 11 ],
					"destination" : [ "obj-31", 0 ],
					"hidden" : 0,
					"midpoints" : [ 177.28125, 129.0, 552.5, 129.0 ]
				}

			}
, 			{
				"patchline" : 				{
					"source" : [ "obj-221", 12 ],
					"destination" : [ "obj-32", 0 ],
					"hidden" : 0,
					"midpoints" : [ 191.625, 129.0, 578.5, 129.0 ]
				}

			}
, 			{
				"patchline" : 				{
					"source" : [ "obj-221", 13 ],
					"destination" : [ "obj-33", 0 ],
					"hidden" : 0,
					"midpoints" : [ 205.96875, 129.0, 604.5, 129.0 ]
				}

			}
, 			{
				"patchline" : 				{
					"source" : [ "obj-221", 14 ],
					"destination" : [ "obj-34", 0 ],
					"hidden" : 0,
					"midpoints" : [ 220.3125, 129.0, 630.5, 129.0 ]
				}

			}
, 			{
				"patchline" : 				{
					"source" : [ "obj-221", 15 ],
					"destination" : [ "obj-35", 0 ],
					"hidden" : 0,
					"midpoints" : [ 234.65625, 129.0, 656.5, 129.0 ]
				}

			}
, 			{
				"patchline" : 				{
					"source" : [ "obj-221", 16 ],
					"destination" : [ "obj-36", 0 ],
					"hidden" : 0,
					"midpoints" : [ 249.0, 129.0, 682.5, 129.0 ]
				}

			}
 ]
	}

}
