max v2;#N vpatcher -8 50 1006 766;#P origin 23 34;#P window setfont Times 12.;#P comment 928 7 98 1310732 Version 1.3;#B frgb 214 55 0;#P comment 928 22 98 1310732 © 2004 Eroktronix;#B frgb 214 55 0;#P window setfont "Sans Serif" 9.;#P user umenu 360 19 69 196645 3 64 35 0;#X setrgb 0 0 0 255 255 255 255 255 255 221 221 221 170 170 170 119 119 119 187 187 187;#X add MIDI out port;#X add " ";#P user umenu 183 19 62 196645 3 64 35 0;#X setrgb 0 0 0 255 255 255 255 255 255 221 221 221 170 170 170 119 119 119 187 187 187;#X add MIDI in port;#X add " ";#P message 742 20 93 196617 open Easy Controls;#N vpatcher 215 122 978 588;#P origin 0 -3;#P window setfont "Sans Serif" 9.;#P hidden newex 248 57 22 196617 b 1;#P hidden inlet 229 57 15 0;#P hidden message 273 57 31 196617 front;#N thispatcher;#Q end;#P hidden newobj 309 57 59 196617 thispatcher;#P window setfont Times 14.;#P comment 248 15 232 1310734 Click the button next to the section label to set up MidiTronª for the section.;#P button 143 347 15 0;#P window setfont "Sans Serif" 9.;#P hidden newex 207 344 22 196617 b 1;#P hidden message 234 344 89 196617 read AllAnalogOut;#P hidden newex 321 344 85 196617 s _mt_paramColl;#P button 143 243 15 0;#P hidden newex 204 241 22 196617 b 1;#P hidden message 231 241 88 196617 read AllDigitalOut;#P hidden newex 318 241 85 196617 s _mt_paramColl;#P button 143 142 15 0;#P hidden newex 203 143 22 196617 b 1;#P hidden message 230 143 82 196617 read AllAnalogIn;#P hidden newex 317 143 85 196617 s _mt_paramColl;#P button 143 17 15 0;#P window setfont Times 14.;#P comment 23 17 110 1310734 Digital inputs =>;#P window setfont "Sans Serif" 9.;#P hidden newex 181 18 22 196617 b 1;#P hidden message 208 18 81 196617 read AllDigitalIn;#P hidden newex 295 18 85 196617 s _mt_paramColl;#P hidden newex 83 319 90 196617 r _mt_midiOuPort;#P hidden newex 73 63 85 196617 r _mt_midiInPort;#P window setfont Times 14.;#P comment 22 347 119 1310734 Analog outputs =>;#P comment 22 243 116 1310734 Digital outputs =>;#P comment 22 142 112 1310734 Analog inputs =>;#P toggle 672 119 15 0;#P toggle 636 119 15 0;#P toggle 600 119 15 0;#P toggle 564 119 15 0;#P toggle 528 119 15 0;#P toggle 492 119 15 0;#P toggle 456 119 15 0;#P toggle 420 119 15 0;#P toggle 384 119 15 0;#P toggle 348 119 15 0;#P toggle 312 119 15 0;#P toggle 276 119 15 0;#P toggle 240 119 15 0;#P toggle 204 119 15 0;#P toggle 168 119 15 0;#P toggle 132 119 15 0;#P toggle 96 119 15 0;#P toggle 60 119 15 0;#P toggle 24 119 15 0;#P window setfont "Sans Serif" 9.;#P newex 24 90 665 196617 gate 19;#P newex 24 64 44 196617 swap;#P newex 24 41 44 196617 notein 1;#P number 348 217 35 9 0 0 0 3 0 0 0 221 221 221 222 222 222 0 0 0;#P number 312 217 35 9 0 0 0 3 0 0 0 221 221 221 222 222 222 0 0 0;#P number 276 217 35 9 0 0 0 3 0 0 0 221 221 221 222 222 222 0 0 0;#P number 240 217 35 9 0 0 0 3 0 0 0 221 221 221 222 222 222 0 0 0;#P number 204 217 35 9 0 0 0 3 0 0 0 221 221 221 222 222 222 0 0 0;#P number 168 217 35 9 0 0 0 3 0 0 0 221 221 221 222 222 222 0 0 0;#P number 132 217 35 9 0 0 0 3 0 0 0 221 221 221 222 222 222 0 0 0;#P number 96 217 35 9 0 0 0 3 0 0 0 221 221 221 222 222 222 0 0 0;#P number 60 217 35 9 0 0 0 3 0 0 0 221 221 221 222 222 222 0 0 0;#P number 24 217 35 9 0 0 0 3 0 0 0 221 221 221 222 222 222 0 0 0;#P number 672 370 35 9 0 127 3 3 0 0 0 221 221 221 222 222 222 0 0 0;#P message 672 390 35 196617 \$1 19;#P number 636 370 35 9 0 127 3 3 0 0 0 221 221 221 222 222 222 0 0 0;#P message 636 390 35 196617 \$1 18;#P number 600 370 35 9 0 127 3 3 0 0 0 221 221 221 222 222 222 0 0 0;#P message 600 390 35 196617 \$1 17;#P number 564 370 35 9 0 127 3 3 0 0 0 221 221 221 222 222 222 0 0 0;#P message 564 390 35 196617 \$1 16;#P number 528 370 35 9 0 127 3 3 0 0 0 221 221 221 222 222 222 0 0 0;#P message 528 390 35 196617 \$1 15;#P number 492 370 35 9 0 127 3 3 0 0 0 221 221 221 222 222 222 0 0 0;#P message 492 390 35 196617 \$1 14;#P number 456 370 35 9 0 127 3 3 0 0 0 221 221 221 222 222 222 0 0 0;#P message 456 390 35 196617 \$1 13;#P number 420 370 35 9 0 127 3 3 0 0 0 221 221 221 222 222 222 0 0 0;#P message 420 390 35 196617 \$1 12;#P number 384 370 35 9 0 127 3 3 0 0 0 221 221 221 222 222 222 0 0 0;#P message 384 390 35 196617 \$1 11;#P number 348 370 35 9 0 127 3 3 0 0 0 221 221 221 222 222 222 0 0 0;#P message 348 390 35 196617 \$1 10;#P number 312 370 35 9 0 127 3 3 0 0 0 221 221 221 222 222 222 0 0 0;#P message 312 390 29 196617 \$1 9;#P number 276 370 35 9 0 127 3 3 0 0 0 221 221 221 222 222 222 0 0 0;#P message 276 390 29 196617 \$1 8;#P number 240 370 35 9 0 127 3 3 0 0 0 221 221 221 222 222 222 0 0 0;#P message 240 390 29 196617 \$1 7;#P number 204 370 35 9 0 127 3 3 0 0 0 221 221 221 222 222 222 0 0 0;#P message 204 390 29 196617 \$1 6;#P number 168 370 35 9 0 127 3 3 0 0 0 221 221 221 222 222 222 0 0 0;#P message 168 390 29 196617 \$1 5;#P number 132 370 35 9 0 127 3 3 0 0 0 221 221 221 222 222 222 0 0 0;#P message 132 390 29 196617 \$1 4;#P number 96 370 35 9 0 127 3 3 0 0 0 221 221 221 222 222 222 0 0 0;#P message 96 390 29 196617 \$1 3;#P number 60 370 35 9 0 127 3 3 0 0 0 221 221 221 222 222 222 0 0 0;#P message 60 390 29 196617 \$1 2;#P toggle 672 266 15 0;#P message 672 291 35 196617 19 \$1;#P toggle 636 266 15 0;#P message 636 291 35 196617 18 \$1;#P toggle 600 266 15 0;#P message 600 291 35 196617 17 \$1;#P toggle 564 266 15 0;#P message 564 291 35 196617 16 \$1;#P toggle 528 266 15 0;#P message 528 291 35 196617 15 \$1;#P toggle 492 266 15 0;#P message 492 291 35 196617 14 \$1;#P toggle 456 266 15 0;#P message 456 291 35 196617 13 \$1;#P toggle 420 266 15 0;#P message 420 291 35 196617 12 \$1;#P toggle 384 266 15 0;#P message 384 291 35 196617 11 \$1;#P toggle 348 266 15 0;#P message 348 291 35 196617 10 \$1;#P toggle 312 266 15 0;#P message 312 291 29 196617 9 \$1;#P toggle 276 266 15 0;#P message 276 291 29 196617 8 \$1;#P toggle 240 266 15 0;#P message 240 291 29 196617 7 \$1;#P toggle 204 266 15 0;#P message 204 291 29 196617 6 \$1;#P toggle 168 266 15 0;#P message 168 291 29 196617 5 \$1;#P toggle 132 266 15 0;#P message 132 291 29 196617 4 \$1;#P toggle 96 266 15 0;#P message 96 291 29 196617 3 \$1;#P toggle 60 266 15 0;#P message 60 291 29 196617 2 \$1;#P newex 24 191 338 196617 gate 10;#P newex 24 165 51 196617 ctlin -1 1;#P toggle 24 266 15 0;#P message 24 291 29 196617 1 \$1;#P newex 24 320 50 196617 noteout 1;#P number 24 370 35 9 0 127 3 3 0 0 0 221 221 221 222 222 222 0 0 0;#P message 24 390 29 196617 \$1 1;#P newex 24 418 43 196617 ctlout 1;#P hidden connect 115 0 90 0;#P connect 90 0 91 0;#P connect 91 1 92 0;#P connect 92 0 93 0;#P hidden connect 115 0 6 0;#P connect 6 1 7 0;#P connect 7 0 80 0;#P connect 5 0 4 0;#P hidden connect 116 0 3 0;#P connect 42 0 3 0;#P connect 40 0 3 0;#P connect 38 0 3 0;#P connect 36 0 3 0;#P connect 34 0 3 0;#P connect 32 0 3 0;#P connect 30 0 3 0;#P connect 28 0 3 0;#P connect 26 0 3 0;#P connect 24 0 3 0;#P connect 22 0 3 0;#P connect 20 0 3 0;#P connect 18 0 3 0;#P connect 16 0 3 0;#P connect 14 0 3 0;#P connect 12 0 3 0;#P connect 10 0 3 0;#P connect 8 0 3 0;#P connect 4 0 3 0;#P connect 2 0 1 0;#P connect 44 0 0 0;#P connect 46 0 0 0;#P connect 48 0 0 0;#P connect 50 0 0 0;#P connect 52 0 0 0;#P connect 54 0 0 0;#P connect 56 0 0 0;#P connect 58 0 0 0;#P connect 60 0 0 0;#P connect 62 0 0 0;#P connect 64 0 0 0;#P connect 66 0 0 0;#P connect 68 0 0 0;#P connect 70 0 0 0;#P connect 72 0 0 0;#P connect 74 0 0 0;#P connect 76 0 0 0;#P connect 78 0 0 0;#P connect 1 0 0 0;#P hidden connect 116 0 0 0;#P connect 90 1 91 1;#P connect 92 1 94 0;#P connect 7 1 81 0;#P connect 9 0 8 0;#P connect 45 0 44 0;#P connect 92 2 95 0;#P connect 7 2 82 0;#P connect 11 0 10 0;#P connect 47 0 46 0;#P connect 92 3 96 0;#P connect 7 3 83 0;#P connect 13 0 12 0;#P connect 49 0 48 0;#P connect 92 4 97 0;#P connect 7 4 84 0;#P connect 15 0 14 0;#P connect 51 0 50 0;#P hidden connect 121 0 119 0;#P hidden connect 125 0 124 0;#P connect 92 5 98 0;#P connect 7 5 85 0;#P hidden connect 129 0 128 0;#P connect 17 0 16 0;#P connect 53 0 52 0;#P hidden connect 133 0 132 0;#P hidden connect 119 0 118 0;#P hidden connect 124 0 123 0;#P hidden connect 128 0 127 0;#P hidden connect 132 0 131 0;#P connect 92 6 99 0;#P connect 7 6 86 0;#P connect 19 0 18 0;#P connect 55 0 54 0;#P hidden connect 137 0 138 0;#P hidden connect 138 0 136 0;#P connect 92 7 100 0;#P connect 7 7 87 0;#P connect 21 0 20 0;#P connect 57 0 56 0;#P hidden connect 118 0 117 0;#P hidden connect 136 0 135 0;#P connect 92 8 101 0;#P connect 7 8 88 0;#P connect 23 0 22 0;#P connect 59 0 58 0;#P hidden connect 123 0 122 0;#P hidden connect 127 0 126 0;#P hidden connect 131 0 130 0;#P connect 92 9 102 0;#P connect 7 9 89 0;#P connect 25 0 24 0;#P connect 61 0 60 0;#P connect 6 0 7 1;#P connect 92 10 103 0;#P connect 27 0 26 0;#P connect 63 0 62 0;#P connect 92 11 104 0;#P connect 29 0 28 0;#P connect 65 0 64 0;#P connect 92 12 105 0;#P connect 31 0 30 0;#P connect 67 0 66 0;#P connect 92 13 106 0;#P connect 33 0 32 0;#P connect 69 0 68 0;#P connect 92 14 107 0;#P connect 35 0 34 0;#P connect 71 0 70 0;#P connect 92 15 108 0;#P connect 37 0 36 0;#P connect 73 0 72 0;#P connect 92 16 109 0;#P connect 39 0 38 0;#P connect 75 0 74 0;#P connect 92 17 110 0;#P connect 41 0 40 0;#P connect 77 0 76 0;#P connect 92 18 111 0;#P connect 43 0 42 0;#P connect 79 0 78 0;#P connect 91 0 92 1;#P pop;#P hidden newobj 766 -20 78 196617 p Easy Controls;#N vpatcher 40 55 298 217;#P window setfont "Sans Serif" 9.;#P newex 131 54 74 196617 s _mt_capture;#P outlet 23 111 15 0;#P newex 131 31 74 196617 r _mt_midiOut;#P newex 23 83 27 196617 gate;#P newex 23 31 94 196617 r _mt_captureGate;#P newex 40 54 74 196617 r _mt_capture;#P connect 1 0 2 0;#P connect 2 0 4 0;#P connect 0 0 2 1;#P connect 3 0 5 0;#P pop;#P hidden newobj 766 0 69 196617 p CaptureCtrl;#P newex 677 19 42 196617 capture;#P user umenu 430 19 100 196647 1 64 35 1;#X add "AU DLS Synth 1";#X add "4x4 Port A";#X add "4x4 Port B";#X add "4x4 Port C";#X add "4x4 Port D";#X add "from Max/MSP 1";#X add "from Max/MSP 2";#P user umenu 246 19 100 196647 1 64 35 1;#X add "4x4 Port A";#X add "4x4 Port B";#X add "4x4 Port C";#X add "4x4 Port D";#X add "to Max/MSP 1";#X add "to Max/MSP 2";#N vpatcher 437 198 1079 555;#P origin 364 0;#P window setfont "Sans Serif" 9.;#P message 230 262 65 196617 frgb 255 0 0;#P message 630 217 54 196617 frgb 0 0 0;#P newex 597 217 27 196617 0;#P newex 564 63 40 196617 b 3;#P newex 564 217 27 196617 0;#P toggle 517 263 15 0;#P newex 517 217 27 196617 1;#P newex 517 195 45 196617 loadbang;#P newex 517 239 55 196617 metro 300;#P outlet 517 288 15 0;#P message 444 217 54 196617 frgb 0 0 0;#P newex 411 217 27 196617 0;#P newex 378 63 40 196617 b 3;#P newex 378 217 27 196617 0;#P toggle 331 263 15 0;#P newex 331 217 27 196617 1;#P newex 331 195 45 196617 loadbang;#P newex 331 239 55 196617 metro 300;#P outlet 331 288 15 0;#P newex 151 124 94 196617 r _mt_midiOutPort;#P newex 151 87 94 196617 s _mt_midiOutPort;#P newex 51 124 85 196617 r _mt_midiInPort;#P newex 51 87 85 196617 s _mt_midiInPort;#N comlet Out port;#P inlet 151 35 15 0;#N comlet In port;#P inlet 51 35 15 0;#P newex 108 203 45 196617 loadbang;#P message 89 229 14 196617 0;#N comlet In port menu;#P outlet 56 285 15 0;#P newex 56 261 43 196617 omsinfo;#P message 108 229 14 196617 0;#N comlet Out port menu;#P outlet 108 285 15 0;#P newex 108 261 43 196617 omsinfo;#P newex 151 62 65 196617 prepend port;#P newex 151 154 41 196617 midiout;#P newex 51 62 65 196617 prepend port;#P newex 51 154 35 196617 midiin;#P newex 51 180 65 196617 s _mt_midiIn;#P newex 250 124 74 196617 r _mt_midiOut;#P connect 13 0 3 0;#P connect 3 0 15 0;#P connect 16 0 2 0;#P connect 2 0 1 0;#P connect 9 0 10 0;#P connect 12 0 11 0;#P connect 11 0 9 1;#P connect 12 0 8 0;#P connect 8 0 6 0;#P connect 6 0 7 0;#P connect 14 0 5 0;#P connect 5 0 17 0;#P connect 0 0 4 0;#P connect 18 0 4 0;#P connect 21 0 37 0;#P connect 21 0 22 0;#P connect 22 0 20 0;#P connect 24 0 20 0;#P connect 20 0 23 0;#P fasten 26 0 23 0 416 259 336 259;#P connect 37 0 19 0;#P fasten 27 0 19 0 449 282 336 282;#P connect 23 0 19 0;#P connect 13 0 25 0;#P connect 25 2 24 0;#P connect 25 1 26 0;#P connect 25 0 27 0;#P connect 30 0 31 0;#P connect 33 0 29 0;#P connect 31 0 29 0;#P fasten 35 0 32 0 602 259 522 259;#P connect 29 0 32 0;#P connect 37 0 28 0;#P connect 32 0 28 0;#P fasten 36 0 28 0 635 282 522 282;#P connect 14 0 34 0;#P connect 34 2 33 0;#P connect 34 1 35 0;#P connect 34 0 36 0;#P pop;#P hidden newobj 366 -8 81 196617 p MidiIO;#P button 539 684 15 0;#P comment 454 685 73 196617 Factory reset!;#N vpatcher 40 55 325 322;#P window setfont "Sans Serif" 9.;#P message 32 166 110 196617 240 0 119 1 1 99 247;#P newex 32 204 74 196617 s _mt_midiOut;#P inlet 32 31 15 0;#P connect 0 0 2 0;#P connect 2 0 1 0;#P pop;#P hidden newobj 677 683 41 196617 p Reset;#P message 630 20 31 196617 dump;#P hidden newex 697 -2 63 196617 s _mt_dump;#P number 395 684 35 9 0 127 3 3 0 0 0 221 221 221 222 222 222 0 0 0;#P comment 304 684 84 196617 Slowdown factor;#N vpatcher 40 55 325 322;#P window setfont "Sans Serif" 9.;#P message 32 166 131 196617 240 0 119 1 1 100 \$1 247;#P newex 32 204 74 196617 s _mt_midiOut;#P inlet 32 31 15 0;#P connect 0 0 2 0;#P connect 2 0 1 0;#P pop;#P hidden newobj 627 683 38 196617 p Slow;#P message 597 20 29 196617 save;#P hidden newex 569 -2 60 196617 s _mt_read;#P hidden newex 630 -2 65 196617 s _mt_write;#P message 567 20 26 196617 load;#N vpatcher 131 109 1006 445;#P window setfont "Sans Serif" 9.;#P newex 484 272 94 196617 s _mt_captureGate;#P newex 484 204 27 196617 1;#P newex 349 204 27 196617 0;#P newex 349 168 145 196617 b 4;#P message 439 204 31 196617 clear;#P newex 404 272 74 196617 s _mt_capture;#P newex 349 142 63 196617 r _mt_dump;#P newex 9 31 60 196617 r _mt_read;#P newex 520 81 27 196617 1;#P newex 520 126 85 196617 s _mt_sysexGate;#P newex 680 81 27 196617 0;#P newex 306 272 88 196617 s _mt_sysexBang;#P newex 248 242 27 196617 1;#P newex 215 272 85 196617 s _mt_sysexGate;#P newex 215 242 27 196617 0;#P newex 198 204 27 196617 b 2;#P newex 271 204 27 196617 b 2;#P message 9 81 28 196617 read;#P newex 9 54 22 196617 b 1;#P newex 440 31 65 196617 r _mt_write;#P message 440 81 33 196617 write;#P newex 570 81 94 196617 s _mt_bangParams;#P newex 440 54 331 196617 b 5;#P message 760 81 31 196617 clear;#P newex 52 231 50 196617 unpack i i;#P newex 52 81 85 196617 r _mt_paramColl;#P newex 125 231 65 196617 prepend send;#P newex 125 204 65 196617 route symbol;#P newex 52 267 45 196617 forward;#N coll _mt_ParamColl;#P newobj 52 142 230 196617 coll _mt_ParamColl;#P message 159 81 75 196617 sort 1 2 \, dump;#P newex 52 204 65 196617 route symbol;#P connect 24 0 13 0;#P connect 13 0 14 0;#P connect 14 0 2 0;#P connect 11 0 2 0;#P connect 8 0 2 0;#P connect 6 0 2 0;#P connect 1 0 2 0;#P connect 2 0 0 0;#P connect 0 1 7 0;#P connect 0 0 7 0;#P connect 7 0 3 0;#P connect 5 0 3 0;#P connect 2 1 4 0;#P connect 4 1 5 0;#P connect 4 0 5 0;#P fasten 16 0 1 0 203 291 43 291 43 73 164 73;#P connect 2 2 16 0;#P connect 16 1 17 0;#P connect 17 0 18 0;#P connect 19 0 18 0;#P connect 15 1 19 0;#P connect 2 3 15 0;#P connect 28 1 15 0;#P connect 15 0 20 0;#P connect 25 0 28 0;#P connect 28 0 29 0;#P connect 27 0 26 0;#P connect 28 2 27 0;#P connect 12 0 9 0;#P connect 9 0 11 0;#P connect 28 3 30 0;#P connect 30 0 31 0;#P connect 29 0 31 0;#P connect 9 1 23 0;#P connect 23 0 22 0;#P connect 21 0 22 0;#P connect 9 2 10 0;#P connect 9 3 21 0;#P connect 9 4 8 0;#P pop;#P hidden newobj 1034 298 50 196617 p Params;#N vpatcher 40 55 535 346;#P window setfont "Sans Serif" 9.;#P message 235 167 161 196617 240 0 119 1 1 102 \$1 \$2 \$3 247;#P newex 235 205 74 196617 s _mt_midiOut;#P newex 235 141 119 196617 pack i i i;#P newex 289 115 41 196617 & 127;#P newex 343 115 41 196617 & 127;#P newex 289 88 27 196617 >> 7;#P newex 235 88 33 196617 >> 14;#P newex 235 59 118 196617 t i i i;#P inlet 235 32 15 0;#P message 32 166 131 196617 240 0 119 1 1 101 \$1 247;#P newex 32 204 74 196617 s _mt_midiOut;#P inlet 32 31 15 0;#P connect 0 0 2 0;#P connect 2 0 1 0;#P connect 3 0 4 0;#P connect 4 0 5 0;#P connect 5 0 9 0;#P connect 9 0 11 0;#P connect 11 0 10 0;#P connect 4 1 6 0;#P connect 6 0 8 0;#P connect 8 0 9 1;#P connect 4 2 7 0;#P connect 7 0 9 2;#P pop;#P hidden newobj 565 684 38 196617 p PWM;#P comment 165 684 61 196617 PWM period;#P number 231 684 51 9 0 65535 19 3 0 0 0 221 221 221 222 222 222 0 0 0;#P comment 2 684 105 196617 PWM resolution (bits);#P number 113 684 35 9 2 7 3 3 0 0 0 221 221 221 222 222 222 0 0 0;#N vpatcher 72 192 927 502;#P origin -265 744;#P window setfont "Sans Serif" 9.;#P message 490 192 199 196617 240 0 119 1 1 \$1 \$2 \$3 \$4 \$5 \$6 \$7 \$8 247;#P message 345 192 139 196617 240 0 119 1 1 \$1 \$2 \$3 \$4 247;#P message 208 192 135 196617 240 0 119 1 1 \$1 \$2 \$3 \$4 \$5 \$6 \$7 247;#P message 71 192 109 196617 240 0 119 1 1 \$1 \$2 247;#P newex 71 133 27 196617 + 1;#P newex 71 159 696 196617 gate 6;#P comment 201 61 65 196617 pin data \; 1 = pin \; 2 = mode \; 3 - 8 = data \;;#P newex 58 109 105 196617 unpack i i i i i i i i;#P newex 41 86 27 196617 t l l;#P newex 71 252 74 196617 s _mt_midiOut;#P newex 41 61 109 196617 r _mt_sysexDataSub1;#P comment 297 61 75 196617 # of params \; Off = 2 \; Digital out = 7 \; Analog out = 4 \; Digital in = 8 \; Analog in = 8 \; Status = 2 \;;#P connect 1 0 3 0;#P connect 3 1 4 0;#P connect 4 1 7 0;#P connect 7 0 6 0;#P connect 6 0 8 0;#P connect 6 5 8 0;#P connect 8 0 2 0;#P connect 9 0 2 0;#P connect 10 0 2 0;#P connect 11 0 2 0;#P connect 6 1 9 0;#P connect 6 2 10 0;#P connect 6 3 11 0;#P connect 6 4 11 0;#P fasten 3 0 6 1 46 153 762 153;#P pop;#P hidden newobj 1034 322 48 196617 p Format;#P bpatcher 1 40 1027 33 -20 -62 MiditronSub1 0 1;#P bpatcher 1 648 1027 33 -20 -62 MiditronSub1 0 20;#P bpatcher 1 616 1027 33 -20 -62 MiditronSub1 0 19;#P bpatcher 1 584 1027 33 -20 -62 MiditronSub1 0 18;#P bpatcher 1 552 1027 33 -20 -62 MiditronSub1 0 17;#P bpatcher 1 520 1027 33 -20 -62 MiditronSub1 0 16;#P bpatcher -3 462 1027 33 -20 -62 MiditronSub1 0 14;#P bpatcher -3 425 1027 33 -20 -62 MiditronSub1 0 13;#P bpatcher 1 392 1027 33 -20 -62 MiditronSub1 0 12;#P bpatcher 1 360 1027 33 -20 -62 MiditronSub1 0 11;#P bpatcher 1 328 1027 33 -20 -62 MiditronSub1 0 10;#P bpatcher 1 296 1027 33 -20 -62 MiditronSub1 0 9;#P bpatcher 1 264 1027 33 -20 -62 MiditronSub1 0 8;#P bpatcher 1 232 1027 33 -20 -62 MiditronSub1 0 7;#P bpatcher 1 200 1027 33 -20 -62 MiditronSub1 0 6;#P bpatcher 1 168 1027 33 -20 -62 MiditronSub1 0 5;#P bpatcher 1 136 1027 33 -20 -62 MiditronSub1 0 4;#P bpatcher 1 104 1027 33 -20 -62 MiditronSub1 0 3;#P bpatcher 1 72 1027 33 -20 -62 MiditronSub1 0 2;#P window setfont Times 18.;#P comment 0 16 171 1310738 MidiTron Programmer;#B frgb 214 55 0;#P bpatcher 1 490 1027 33 -20 -62 MiditronSub1 0 15;#P hidden connect 40 2 47 0;#P hidden connect 40 0 41 0;#P hidden connect 40 3 48 0;#P hidden connect 41 1 40 0;#P hidden connect 40 1 42 0;#P hidden connect 42 1 40 1;#P hidden connect 22 0 26 0;#P hidden connect 28 0 30 0;#P hidden connect 24 0 26 1;#P hidden connect 34 0 32 0;#P hidden connect 31 0 29 0;#P hidden connect 44 0 43 0;#P hidden connect 39 0 37 0;#P hidden connect 36 0 35 0;#P hidden connect 46 0 45 0;#P pop;